<svg width="587" height="504" viewBox="0 0 387 304" fill="none" xmlns="http://www.w3.org/2000/svg">
<path d="M90.0725 253.183H132.709V50.6582H90.0725V253.183ZM112.113 303.046C94.4084 303.046 79.3531 301.962 66.9475 299.794C54.5419 297.626 44.1838 294.735 35.8732 291.122C27.5627 287.509 20.9986 283.293 16.1809 278.476C11.4836 273.658 7.93054 268.66 5.52168 263.48C3.23327 258.301 1.78796 253.062 1.18575 247.763C0.583532 242.343 0.282425 237.224 0.282425 232.406V71.6152C0.282425 66.7975 0.583532 61.7389 1.18575 56.4395C1.78796 51.0195 3.23327 45.7201 5.52168 40.541C7.93054 35.2415 11.4836 30.2432 16.1809 25.5459C20.9986 20.7282 27.5627 16.5127 35.8732 12.8994C44.1838 9.28613 54.5419 6.39551 66.9475 4.22754C79.3531 2.05957 94.4084 0.975586 112.113 0.975586C129.819 0.975586 144.814 2.05957 157.099 4.22754C169.504 6.39551 179.802 9.28613 187.992 12.8994C196.182 16.5127 202.566 20.7282 207.143 25.5459C211.72 30.2432 215.152 35.2415 217.441 40.541C219.729 45.7201 221.114 51.0195 221.596 56.4395C222.198 61.7389 222.499 66.7975 222.499 71.6152V232.406C222.499 237.224 222.198 242.343 221.596 247.763C221.114 253.062 219.729 258.301 217.441 263.48C215.152 268.66 211.72 273.658 207.143 278.476C202.566 283.293 196.182 287.509 187.992 291.122C179.802 294.735 169.504 297.626 157.099 299.794C144.814 301.962 129.819 303.046 112.113 303.046ZM386.824 7.84082V296H297.034V79.2031H252.049V45.9609C257.348 45.9609 263.009 45.2383 269.031 43.793C275.174 42.2272 281.075 39.8786 286.736 36.7471C292.397 33.6156 297.636 29.641 302.454 24.8232C307.272 20.0055 311.066 14.3447 313.836 7.84082H386.824Z" fill="#D3D3D3" fill-opacity="0.59"/>
</svg>
