<svg width="147" height="149" viewBox="0 0 137 139" fill="none" xmlns="http://www.w3.org/2000/svg">
<circle cx="68.8458" cy="68.1542" r="68.1542" fill="#94DD67"/>
<path d="M71.6845 36.7196C75.4797 35.3536 79.4504 35.4778 83.3346 37.2475C86.9322 38.833 90.2635 41.4622 93.3283 45.1352C96.2376 48.5461 98.4919 52.3457 99.8822 56.4806C102.565 63.3915 103.5 69.745 102.843 75.8032C102.206 83.0895 98.9666 88.3772 93.2017 91.7975C91.8915 92.5748 90.0861 93.1145 87.8387 93.2079C86.4018 93.1746 84.8584 93.5589 83.4172 94.414C82.107 95.1913 81.03 96.3617 80.3705 97.6386C79.2114 99.5663 77.8723 100.892 76.5621 101.669C70.7972 105.09 64.6036 105.399 57.9035 102.465C52.2715 100.138 47.1437 96.2722 42.3643 90.6051C39.4017 87.4029 37.1475 83.6033 35.5483 79.4151C33.7937 74.9648 33.0829 70.781 33.4158 66.8635C33.7243 62.6064 35.5185 59.062 38.5364 56.3858C40.4772 54.8801 43.5151 53.432 47.7278 52.1726C51.4165 51.2242 54.6587 50.7177 57.4546 50.6532C58.9824 48.1526 60.9809 45.5497 63.5813 42.767C66.7057 39.6734 69.4327 37.7012 71.6845 36.7196ZM61.2914 35.623C60.8118 37.5018 59.7059 39.2207 57.9205 40.9885C56.9213 42.2899 55.4267 43.3537 53.7235 44.3642L51.8115 45.3214C50.8498 44.2977 49.9948 42.8565 49.324 41.1288C47.7205 37.8288 47.3695 34.8486 47.9312 32.2126C48.6195 30.3871 49.6477 28.5372 51.302 26.8471C52.5101 25.599 53.9268 24.4041 55.4991 23.4714L57.5421 22.4364L58.8391 24.324C59.8496 26.0272 60.6514 27.6772 60.9047 29.2983C61.6243 31.7056 61.771 33.7442 61.2914 35.623Z" fill="black"/>
</svg>
