<svg width="153" height="156" viewBox="0 0 143 146" fill="none" xmlns="http://www.w3.org/2000/svg">
<circle cx="71.5" cy="71.5" r="71.5" fill="#F57FDF"/>
<path d="M75.8592 39.3209C79.995 37.8323 84.322 37.9677 88.5548 39.8962C92.4753 41.6239 96.1055 44.4891 99.4454 48.4917C102.616 52.2087 105.072 56.3493 106.588 60.8554C109.511 68.3864 110.53 75.3101 109.814 81.912C109.12 89.8522 105.59 95.6145 99.3074 99.3416C97.8797 100.189 95.9122 100.777 93.4631 100.879C91.8973 100.842 90.2154 101.261 88.6449 102.193C87.2171 103.04 86.0434 104.315 85.3247 105.707C84.0616 107.808 82.6024 109.253 81.1746 110.1C74.8923 113.827 68.1428 114.163 60.8414 110.967C54.7041 108.431 49.116 104.218 43.9078 98.0423C40.6793 94.5527 38.2227 90.4122 36.4801 85.848C34.568 80.9984 33.7934 76.439 34.1562 72.1701C34.4924 67.5308 36.4476 63.6684 39.7363 60.752C41.8513 59.1112 45.1618 57.5331 49.7526 56.1608C53.7722 55.1272 57.3055 54.5753 60.3523 54.5049C62.0172 51.7799 64.1951 48.9435 67.0288 45.9111C70.4336 42.5398 73.4054 40.3906 75.8592 39.3209ZM64.5334 38.1259C64.0107 40.1733 62.8056 42.0464 60.86 43.9729C59.7711 45.3911 58.1424 46.5504 56.2863 47.6516L54.2027 48.6947C53.1548 47.5791 52.223 46.0086 51.492 44.1258C49.7446 40.5297 49.3621 37.282 49.9742 34.4094C50.7243 32.4201 51.8447 30.4041 53.6476 28.5624C54.964 27.2023 56.5079 25.9002 58.2213 24.8837L60.4477 23.7559L61.8611 25.8128C62.9623 27.669 63.836 29.467 64.112 31.2336C64.8962 33.8569 65.056 36.0785 64.5334 38.1259Z" fill="black"/>
</svg>
