<svg width="492" height="775" viewBox="0 0 282 565" fill="none" xmlns="http://www.w3.org/2000/svg">
<g filter="url(#filter0_d_38_19)">
<rect x="3" y="134" width="274" height="419" rx="18" fill="#FDFDFD"/>
</g>
<path d="M13 151C13 144.925 17.9249 140 24 140H259C265.075 140 270 144.925 270 151V161H13V151Z" fill="#0C0C0C"/>
<rect x="102" y="145" width="73" height="6" rx="3" fill="#5F5F5F" fill-opacity="0.97"/>
<rect x="12.5" y="139.5" width="257" height="406" rx="11.5" stroke="#606060"/>
<path d="M113 0H166V146C166 147.105 165.105 148 164 148H115C113.895 148 113 147.105 113 146V0Z" fill="#1B1B1B"/>
<rect x="136" width="2" height="148" fill="white" fill-opacity="0.21"/>
<rect x="141" width="2" height="148" fill="white" fill-opacity="0.21"/>
<rect x="146" width="2" height="148" fill="white" fill-opacity="0.21"/>
<rect x="131" width="2" height="148" fill="white" fill-opacity="0.21"/>
<defs>
<filter id="filter0_d_38_19" x="0" y="134" width="282" height="431" filterUnits="userSpaceOnUse" color-interpolation-filters="sRGB">
<feFlood flood-opacity="0" result="BackgroundImageFix"/>
<feColorMatrix in="SourceAlpha" type="matrix" values="0 0 0 0 0 0 0 0 0 0 0 0 0 0 0 0 0 0 127 0" result="hardAlpha"/>
<feOffset dx="1" dy="8"/>
<feGaussianBlur stdDeviation="2"/>
<feComposite in2="hardAlpha" operator="out"/>
<feColorMatrix type="matrix" values="0 0 0 0 0 0 0 0 0 0 0 0 0 0 0 0 0 0 0.25 0"/>
<feBlend mode="normal" in2="BackgroundImageFix" result="effect1_dropShadow_38_19"/>
<feBlend mode="normal" in="SourceGraphic" in2="effect1_dropShadow_38_19" result="shape"/>
</filter>
</defs>
</svg>
