<svg width="203" height="126" viewBox="0 0 193 116" fill="none" xmlns="http://www.w3.org/2000/svg">
<rect x="24.4087" y="1.67969" width="160" height="79" rx="34" transform="rotate(12.1201 24.4087 1.67969)" fill="#DADADA"/>
<path d="M83.5289 33.4816L83.4618 33.7945L81.8818 33.4552L81.949 33.1423L82.5669 33.275L83.3765 29.505L82.7586 29.3723L82.8274 29.0516L84.4074 29.3909L84.3386 29.7116L83.7285 29.5805L82.9189 33.3506L83.5289 33.4816ZM89.9407 35.1858L89.5809 35.1086L90.5266 30.705L90.8864 30.7822L90.4631 32.7533L93.1694 33.3345L93.5927 31.3634L93.9369 31.4373L92.9912 35.8409L92.647 35.767L93.1056 33.6317L90.3993 33.0505L89.9407 35.1858ZM95.2683 36.3299L97.833 32.274L98.4197 32.4L99.1087 37.1546L98.7333 37.074L98.52 35.5145L96.4707 35.0744L95.6281 36.4072L95.2683 36.3299ZM98.0967 32.4943L96.6552 34.7867L98.4698 35.1764L98.0967 32.4943ZM104.766 33.7629L105.157 33.8469L102.608 37.9061L102.006 37.7768L101.356 33.0305L101.739 33.1128L102.35 37.6624L104.766 33.7629ZM106.849 38.4979L109.423 39.0505L109.357 39.3555L106.424 38.7256L107.37 34.322L110.233 34.9368L110.164 35.2575L107.661 34.72L107.296 36.4173L109.299 36.8473L109.231 37.1602L107.229 36.7302L106.849 38.4979ZM116.768 40.6197L116.701 40.9325L115.121 40.5932L115.188 40.2804L115.806 40.4131L116.616 36.643L115.998 36.5103L116.067 36.1896L117.646 36.5289L117.578 36.8496L116.968 36.7186L116.158 40.4886L116.768 40.6197ZM123.358 37.7555L123.71 37.8311L122.765 42.2347L122.108 42.0936L120.484 37.31L120.468 37.3067L119.558 41.546L119.206 41.4704L120.151 37.0668L120.769 37.1995L122.432 41.9915L122.448 41.9949L123.358 37.7555ZM35.8529 55.5227C32.3175 54.7635 29.8741 53.4533 28.5228 51.5921C27.1714 49.7309 26.7947 47.408 27.3927 44.6235C27.994 41.8233 29.3063 39.7895 31.3295 38.5221C33.3527 37.2546 36.132 37.0005 39.6674 37.7597C44.6107 38.8213 47.5548 41.2291 48.4997 44.9832C46.9876 45.1658 45.181 45.5388 43.0799 46.1022C42.8144 45.1287 42.2342 44.325 41.3394 43.691C40.4602 43.0603 39.5122 42.6358 38.4954 42.4175C36.9936 42.095 35.7894 42.2537 34.8829 42.8936C33.9797 43.5179 33.4038 44.4088 33.1552 45.5664C32.8864 46.8179 33.0575 47.9265 33.6683 48.8923C34.2981 49.8458 35.4265 50.4972 37.0534 50.8466C38.3518 51.1254 39.4296 51.136 40.2869 50.8782C41.1475 50.6048 41.8584 50.0374 42.4198 49.1761C43.5547 50.1399 45.031 51.2669 46.8486 52.5573C45.6599 54.2822 44.0698 55.3236 42.0783 55.6814C40.0868 56.0392 38.0116 55.9863 35.8529 55.5227ZM71.506 45.1125C70.8287 47.7327 70.1642 50.5602 69.5125 53.595C68.8608 56.6298 68.3058 59.4809 67.8476 62.1481L62.3333 60.9639L63.7039 54.5814L55.0688 52.727L53.6982 59.1095L48.1839 57.9254C48.9608 54.9174 49.6331 52.0916 50.2008 49.4479C50.7685 46.8041 51.3157 43.9514 51.8423 40.8897L57.3565 42.0739L55.9859 48.4564L64.621 50.3108L65.9917 43.9283L71.506 45.1125ZM84.9998 65.8315C84.894 64.876 84.7353 63.6719 84.5237 62.219L77.0383 60.6116L75.1445 63.7151L69.2548 62.4503L79.4833 46.8256L88.1185 48.68L91.0772 67.1366L84.9998 65.8315ZM83.9723 58.2713C83.7305 56.501 83.4732 54.7275 83.2002 52.9506L82.9646 51.3044C82.1113 52.6104 80.8438 54.5883 79.1619 57.2382L83.9723 58.2713ZM115.681 54.6235C115.004 57.2438 114.341 60.0634 113.692 63.0826C113.041 66.1174 112.486 68.9684 112.027 71.6357L103.627 69.8317L100.7 55.8003L98.3708 68.7029L92.3403 67.4079C93.1172 64.4 93.7895 61.5741 94.3572 58.9304C94.9216 56.3023 95.4671 53.4574 95.9936 50.3957L104.629 52.2501L107.504 66.6385L109.932 53.389L115.681 54.6235ZM126.126 64.5009L136.146 66.6526L134.06 76.3671L129.93 75.4802L130.329 71.2211C129.541 72.6064 128.467 73.5296 127.108 73.9905C125.749 74.4514 124.201 74.4954 122.465 74.1225C120.885 73.7832 119.552 73.1289 118.468 72.1596C117.399 71.1936 116.653 69.978 116.232 68.5128C115.825 67.0509 115.811 65.444 116.187 63.6919C116.788 60.8917 118.1 58.8579 120.124 57.5905C122.147 56.323 124.926 56.0689 128.461 56.8281C130.479 57.2615 132.184 57.9713 133.576 58.9575C134.984 59.9471 136.08 61.2462 136.863 62.8546C136.082 63.0632 134.551 63.4872 132.27 64.1265L131.613 64.329C131.134 63.5879 130.519 62.9814 129.77 62.5095C129.024 62.0219 128.197 61.6807 127.289 61.4859C125.788 61.1634 124.583 61.3221 123.677 61.962C122.774 62.5863 122.198 63.4772 121.949 64.6348C121.68 65.8863 121.855 66.9793 122.472 67.9138C123.106 68.8516 124.236 69.4952 125.863 69.8446C126.567 69.9958 127.269 70.0402 127.97 69.978C128.686 69.9191 129.325 69.688 129.886 69.2849L125.31 68.3022L126.126 64.5009ZM142.865 73.7659C148.816 75.0112 153.144 75.8506 155.85 76.2843C155.602 76.9022 155.389 77.5519 155.21 78.2335C155.05 78.9028 154.859 79.7537 154.637 80.7861L136.405 76.8707C137.182 73.8628 137.854 71.037 138.422 68.3933C138.99 65.7495 139.537 62.8968 140.063 59.8351L158.296 63.7505L157.384 67.9977L144.689 65.2715L144.205 67.5242C144.953 67.7011 146.062 67.9474 147.532 68.2632C150.02 68.7973 152.603 69.303 155.283 69.7803L154.416 73.8162C151.777 73.1513 149.213 72.5517 146.726 72.0176C145.256 71.7018 144.143 71.4711 143.389 71.3255L142.865 73.7659ZM166.762 64.243C166.537 65.2911 166.066 67.2929 165.349 70.2483C165.217 70.7109 165.128 71.0517 165.081 71.2707C164.294 73.4092 163.685 75.2913 163.254 76.9171L158.913 75.9849C159.188 74.3255 159.405 72.3594 159.566 70.0865L159.765 69.049C160.188 66.6198 160.573 64.5995 160.919 62.9883L166.762 64.243ZM162.519 82.9697L157.075 81.8006L157.972 77.6238L163.416 78.7929L162.519 82.9697ZM77.045 79.2034C76.9207 79.7822 76.7143 80.2097 76.4259 80.486C76.1438 80.7582 75.7938 80.9148 75.3758 80.956C74.9579 80.9971 74.4882 80.9617 73.9667 80.8498L72.8248 80.6045L73.7704 76.2009L74.9124 76.4462C75.4338 76.5581 75.8722 76.7396 76.2274 76.9904C76.5838 77.236 76.8342 77.5435 76.9785 77.9127C77.1281 78.283 77.1503 78.7132 77.045 79.2034ZM73.2517 80.3689L74.0965 80.5503C74.5293 80.6433 74.918 80.6749 75.2625 80.6453C75.6123 80.6167 75.905 80.4859 76.1405 80.2529C76.3812 80.0209 76.5576 79.6442 76.6696 79.1228C76.7614 78.6952 76.7457 78.3236 76.6226 78.008C76.5057 77.6884 76.2971 77.4281 75.9966 77.2272C75.7024 77.0222 75.3389 76.8732 74.9061 76.7803L74.0614 76.5989L73.2517 80.3689ZM80.7467 82.4203C80.0583 82.2725 79.5785 81.954 79.3072 81.4648C79.037 80.9703 78.9775 80.3712 79.1286 79.6672C79.2283 79.2031 79.3927 78.8184 79.622 78.5131C79.8523 78.2025 80.1441 77.987 80.4972 77.8664C80.8515 77.7407 81.2633 77.7282 81.7326 77.829C82.4262 77.9779 82.9054 78.299 83.1704 78.7923C83.4365 79.2804 83.4946 79.8738 83.3445 80.5726C83.2471 81.0262 83.08 81.4104 82.8434 81.725C82.613 82.0356 82.3207 82.2537 81.9664 82.3795C81.6121 82.5052 81.2055 82.5188 80.7467 82.4203ZM80.8189 82.084C81.3977 82.2083 81.8743 82.1224 82.2488 81.8265C82.6233 81.5305 82.8738 81.0879 83.0004 80.4987C83.1269 79.9094 83.0822 79.4062 82.8664 78.9889C82.6516 78.5664 82.2496 78.2918 81.6604 78.1653C81.0816 78.041 80.6066 78.119 80.2355 78.3993C79.8644 78.6797 79.6127 79.1275 79.4806 79.7428C79.3552 80.3268 79.3967 80.8321 79.6051 81.2587C79.8198 81.6812 80.2244 81.9563 80.8189 82.084ZM89.6531 84.2184L90.0042 82.5837L89.1048 79.494L89.4959 79.578L90.2736 82.2815L92.0692 80.1306L92.4603 80.2146L90.3639 82.6609L90.0129 84.2957L89.6531 84.2184ZM95.3619 85.5589C94.6736 85.4111 94.1938 85.0926 93.9224 84.6034C93.6522 84.1089 93.5927 83.5098 93.7439 82.8058C93.8435 82.3417 94.008 81.957 94.2372 81.6517C94.4675 81.3411 94.7593 81.1256 95.1125 81.005C95.4668 80.8793 95.8786 80.8668 96.3479 80.9676C97.0414 81.1165 97.5207 81.4376 97.7857 81.9309C98.0518 82.419 98.1098 83.0124 97.9597 83.7112C97.8623 84.1648 97.6953 84.549 97.4586 84.8636C97.2283 85.1742 96.9359 85.3923 96.5816 85.5181C96.2273 85.6438 95.8208 85.6574 95.3619 85.5589ZM95.4341 85.2226C96.0129 85.3469 96.4896 85.261 96.8641 84.9651C97.2385 84.6691 97.4891 84.2265 97.6156 83.6373C97.7421 83.048 97.6975 82.5448 97.4816 82.1275C97.2669 81.705 96.8649 81.4304 96.2756 81.3039C95.6968 81.1796 95.2219 81.2576 94.8507 81.538C94.4796 81.8183 94.228 82.2661 94.0958 82.8814C93.9704 83.4654 94.0119 83.9707 94.2203 84.3973C94.4351 84.8198 94.8397 85.0949 95.4341 85.2226ZM101.537 86.8851C100.964 86.7619 100.558 86.4947 100.319 86.0833C100.086 85.6679 100.037 85.1447 100.173 84.5137L100.715 81.9873L101.075 82.0646L100.533 84.591C100.414 85.1437 100.453 85.5857 100.649 85.9169C100.851 86.2441 101.172 86.4547 101.61 86.5488C102.074 86.6484 102.457 86.589 102.761 86.3705C103.069 86.1531 103.283 85.7654 103.403 85.2074L103.946 82.681L104.298 82.7566L103.755 85.283C103.617 85.9244 103.358 86.3841 102.976 86.6622C102.601 86.9362 102.121 87.0105 101.537 86.8851ZM107.371 86.976L107.066 86.9105C107.113 86.6915 107.197 86.5159 107.319 86.3837C107.44 86.2516 107.575 86.1415 107.725 86.0537C107.876 85.9606 108.026 85.8728 108.174 85.7902C108.329 85.7035 108.463 85.6013 108.576 85.4836C108.693 85.3671 108.772 85.2149 108.813 85.0272C108.88 84.7415 108.835 84.4919 108.679 84.2784C108.523 84.0649 108.294 83.9257 107.991 83.8608C107.746 83.8081 107.534 83.8198 107.354 83.8957C107.175 83.9664 107.03 84.0825 106.919 84.2441C106.809 84.4005 106.732 84.5804 106.688 84.7838L106.344 84.7099C106.392 84.4365 106.489 84.2009 106.635 84.0032C106.788 83.8014 106.982 83.6577 107.219 83.5721C107.462 83.4824 107.74 83.4712 108.052 83.5384C108.303 83.5921 108.521 83.6909 108.709 83.8348C108.896 83.9787 109.032 84.1579 109.117 84.3725C109.203 84.5819 109.218 84.8169 109.162 85.0777C109.114 85.3019 109.029 85.4801 108.908 85.6123C108.787 85.7444 108.649 85.8539 108.494 85.9406C108.345 86.0232 108.194 86.1053 108.04 86.1868C107.887 86.2631 107.749 86.3616 107.625 86.4822C107.506 86.604 107.421 86.7686 107.371 86.976ZM107.001 88.0174C106.907 87.9972 106.85 87.9577 106.83 87.8988C106.815 87.8411 106.816 87.7731 106.832 87.6949C106.847 87.6271 106.872 87.5726 106.909 87.5312C106.951 87.4858 107.019 87.4732 107.113 87.4933C107.202 87.5124 107.256 87.5513 107.276 87.6102C107.297 87.6638 107.301 87.7245 107.286 87.7923C107.269 87.8705 107.24 87.9324 107.197 87.9778C107.155 88.0232 107.089 88.0364 107.001 88.0174Z" fill="black"/>
</svg>
