<svg width="877" height="552" viewBox="0 0 977 652" fill="none" xmlns="http://www.w3.org/2000/svg">
<path d="M26.1232 314.74L63 329.5L90.4794 306.946L78.3428 340.219L102.589 370.631L65.3428 355.719L38.2331 378.425L50.8428 344.719L26.1232 314.74Z" fill="#FAFAFA"/>
<path d="M834.522 355.987L859.545 395.416L903.285 390.977L866.892 415.644L873.006 461.941L847.983 422.512L804.242 426.951L840.635 402.284L834.522 355.987Z" fill="white"/>
<path d="M927.266 233.835C940.808 297.982 904.341 366.461 834.173 425.333C764.024 484.19 660.291 533.349 539.599 558.828C418.907 584.308 304.155 581.273 216.202 555.793C128.225 530.306 67.1905 482.41 53.6485 418.264C40.1066 354.117 76.5728 285.638 146.741 226.765C216.89 167.908 320.623 118.749 441.315 93.2699C562.008 67.7906 676.759 70.8252 764.713 96.3052C852.689 121.792 913.724 169.688 927.266 233.835Z" stroke="white"/>
</svg>
