<svg width="164" height="164" viewBox="0 0 154 154" fill="none" xmlns="http://www.w3.org/2000/svg">
<circle cx="77" cy="77" r="77" fill="#A4C9E4"/>
<path d="M57.6409 55.679C61.7769 55.679 65.0439 56.185 67.4419 57.197C69.8399 58.187 71.5119 59.573 72.4579 61.355C73.4259 63.115 73.9099 65.282 73.9099 67.856C73.9099 70.298 73.3599 72.432 72.2599 74.258C71.1599 76.084 69.5099 77.503 67.3099 78.515C65.1099 79.505 62.4039 80 59.1919 80C57.2339 80 55.2429 80 53.2189 80C51.1949 80 49.1489 79.989 47.0809 79.967C47.2569 75.633 47.3449 71.596 47.3449 67.856C47.3449 64.072 47.2569 60.123 47.0809 56.009C49.6989 55.789 53.2189 55.679 57.6409 55.679ZM60.1159 73.433C62.1619 73.433 63.5259 72.938 64.2079 71.948C64.8899 70.958 65.2309 69.594 65.2309 67.856C65.2309 66.184 64.8679 64.831 64.1419 63.797C63.4379 62.763 62.0959 62.246 60.1159 62.246C57.9819 62.246 56.3869 62.312 55.3309 62.444V73.433H60.1159ZM92.2109 80.33C87.1729 80.33 83.4659 79.241 81.0899 77.063C78.7139 74.863 77.5259 71.783 77.5259 67.823C77.5259 63.907 78.7029 60.849 81.0569 58.649C83.4329 56.449 87.1509 55.349 92.2109 55.349C97.2929 55.349 101.011 56.449 103.365 58.649C105.741 60.849 106.929 63.907 106.929 67.823C106.929 71.805 105.752 74.885 103.398 77.063C101.044 79.241 97.3149 80.33 92.2109 80.33ZM92.2109 73.598C94.6529 73.598 96.4129 73.136 97.4909 72.212C98.5689 71.266 99.1079 69.803 99.1079 67.823C99.1079 65.887 98.5689 64.446 97.4909 63.5C96.4129 62.554 94.6529 62.081 92.2109 62.081C89.7909 62.081 88.0419 62.554 86.9639 63.5C85.8859 64.446 85.3469 65.887 85.3469 67.823C85.3469 69.781 85.8859 71.233 86.9639 72.179C88.0419 73.125 89.7909 73.598 92.2109 73.598ZM28.5077 96.338H42.5987V110H36.7907L36.0977 104.159C35.4377 106.249 34.2607 107.8 32.5667 108.812C30.8727 109.824 28.8047 110.33 26.3627 110.33C24.1407 110.33 22.1607 109.835 20.4227 108.845C18.7067 107.855 17.3537 106.436 16.3637 104.588C15.3957 102.74 14.9117 100.584 14.9117 98.12C14.9117 94.182 16.0887 91.069 18.4427 88.781C20.7967 86.493 24.4597 85.349 29.4317 85.349C32.2697 85.349 34.7667 85.811 36.9227 86.735C39.1007 87.659 40.9487 89.089 42.4667 91.025C41.4767 91.531 39.5407 92.543 36.6587 94.061L35.8337 94.523C34.9757 93.665 33.9747 93.027 32.8307 92.609C31.6867 92.169 30.4767 91.949 29.2007 91.949C27.0887 91.949 25.5157 92.51 24.4817 93.632C23.4477 94.732 22.9307 96.096 22.9307 97.724C22.9307 99.484 23.4807 100.903 24.5807 101.981C25.7027 103.059 27.4077 103.598 29.6957 103.598C30.6857 103.598 31.6427 103.455 32.5667 103.169C33.5127 102.883 34.3047 102.388 34.9427 101.684H28.5077V96.338ZM60.9119 110.33C55.8739 110.33 52.1669 109.241 49.7909 107.063C47.4149 104.863 46.2269 101.783 46.2269 97.823C46.2269 93.907 47.4039 90.849 49.7579 88.649C52.1339 86.449 55.8519 85.349 60.9119 85.349C65.9939 85.349 69.7119 86.449 72.0659 88.649C74.4419 90.849 75.6299 93.907 75.6299 97.823C75.6299 101.805 74.4529 104.885 72.0989 107.063C69.7449 109.241 66.0159 110.33 60.9119 110.33ZM60.9119 103.598C63.3539 103.598 65.1139 103.136 66.1919 102.212C67.2699 101.266 67.8089 99.803 67.8089 97.823C67.8089 95.887 67.2699 94.446 66.1919 93.5C65.1139 92.554 63.3539 92.081 60.9119 92.081C58.4919 92.081 56.7429 92.554 55.6649 93.5C54.5869 94.446 54.0479 95.887 54.0479 97.823C54.0479 99.781 54.5869 101.233 55.6649 102.179C56.7429 103.125 58.4919 103.598 60.9119 103.598ZM93.9351 110.33C88.8971 110.33 85.1901 109.241 82.8141 107.063C80.4381 104.863 79.2501 101.783 79.2501 97.823C79.2501 93.907 80.4271 90.849 82.7811 88.649C85.1571 86.449 88.8751 85.349 93.9351 85.349C99.0171 85.349 102.735 86.449 105.089 88.649C107.465 90.849 108.653 93.907 108.653 97.823C108.653 101.805 107.476 104.885 105.122 107.063C102.768 109.241 99.0391 110.33 93.9351 110.33ZM93.9351 103.598C96.3771 103.598 98.1371 103.136 99.2151 102.212C100.293 101.266 100.832 99.803 100.832 97.823C100.832 95.887 100.293 94.446 99.2151 93.5C98.1371 92.554 96.3771 92.081 93.9351 92.081C91.5151 92.081 89.7661 92.554 88.6881 93.5C87.6101 94.446 87.0711 95.887 87.0711 97.823C87.0711 99.781 87.6101 101.233 88.6881 102.179C89.7661 103.125 91.5151 103.598 93.9351 103.598ZM122.833 85.679C126.969 85.679 130.236 86.185 132.634 87.197C135.032 88.187 136.704 89.573 137.65 91.355C138.618 93.115 139.102 95.282 139.102 97.856C139.102 100.298 138.552 102.432 137.452 104.258C136.352 106.084 134.702 107.503 132.502 108.515C130.302 109.505 127.596 110 124.384 110C122.426 110 120.435 110 118.411 110C116.387 110 114.341 109.989 112.273 109.967C112.449 105.633 112.537 101.596 112.537 97.856C112.537 94.072 112.449 90.123 112.273 86.009C114.891 85.789 118.411 85.679 122.833 85.679ZM125.308 103.433C127.354 103.433 128.718 102.938 129.4 101.948C130.082 100.958 130.423 99.594 130.423 97.856C130.423 96.184 130.06 94.831 129.334 93.797C128.63 92.763 127.288 92.246 125.308 92.246C123.174 92.246 121.579 92.312 120.523 92.444V103.433H125.308Z" fill="black"/>
</svg>
