<svg width="172" height="172" viewBox="0 0 162 162" fill="none" xmlns="http://www.w3.org/2000/svg">
<circle cx="81" cy="81" r="81" fill="#5953F7"/>
<path d="M61.1727 52.4362C65.3087 52.4362 68.5757 52.9422 70.9737 53.9542C73.3717 54.9442 75.0437 56.3302 75.9897 58.1122C76.9577 59.8722 77.4417 62.0392 77.4417 64.6132C77.4417 67.0552 76.8917 69.1892 75.7917 71.0152C74.6917 72.8412 73.0417 74.2602 70.8417 75.2722C68.6417 76.2622 65.9357 76.7572 62.7237 76.7572C60.7657 76.7572 58.7747 76.7572 56.7507 76.7572C54.7267 76.7572 52.6807 76.7462 50.6127 76.7242C50.7887 72.3902 50.8767 68.3532 50.8767 64.6132C50.8767 60.8292 50.7887 56.8802 50.6127 52.7662C53.2307 52.5462 56.7507 52.4362 61.1727 52.4362ZM63.6477 70.1902C65.6937 70.1902 67.0577 69.6952 67.7397 68.7052C68.4217 67.7152 68.7627 66.3512 68.7627 64.6132C68.7627 62.9412 68.3997 61.5882 67.6737 60.5542C66.9697 59.5202 65.6277 59.0032 63.6477 59.0032C61.5137 59.0032 59.9187 59.0692 58.8627 59.2012V70.1902H63.6477ZM95.7427 77.0872C90.7047 77.0872 86.9977 75.9982 84.6217 73.8202C82.2457 71.6202 81.0577 68.5402 81.0577 64.5802C81.0577 60.6642 82.2347 57.6062 84.5887 55.4062C86.9647 53.2062 90.6827 52.1062 95.7427 52.1062C100.825 52.1062 104.543 53.2062 106.897 55.4062C109.273 57.6062 110.461 60.6642 110.461 64.5802C110.461 68.5622 109.284 71.6422 106.93 73.8202C104.576 75.9982 100.847 77.0872 95.7427 77.0872ZM95.7427 70.3552C98.1847 70.3552 99.9447 69.8932 101.023 68.9692C102.101 68.0232 102.64 66.5602 102.64 64.5802C102.64 62.6442 102.101 61.2032 101.023 60.2572C99.9447 59.3112 98.1847 58.8382 95.7427 58.8382C93.3227 58.8382 91.5737 59.3112 90.4957 60.2572C89.4177 61.2032 88.8787 62.6442 88.8787 64.5802C88.8787 66.5382 89.4177 67.9902 90.4957 68.9362C91.5737 69.8822 93.3227 70.3552 95.7427 70.3552ZM32.0395 93.0952H46.1305V106.757H40.3225L39.6295 100.916C38.9695 103.006 37.7925 104.557 36.0985 105.569C34.4045 106.581 32.3365 107.087 29.8945 107.087C27.6725 107.087 25.6925 106.592 23.9545 105.602C22.2385 104.612 20.8855 103.193 19.8955 101.345C18.9275 99.4972 18.4435 97.3412 18.4435 94.8772C18.4435 90.9392 19.6205 87.8262 21.9745 85.5382C24.3285 83.2502 27.9915 82.1062 32.9635 82.1062C35.8015 82.1062 38.2985 82.5682 40.4545 83.4922C42.6325 84.4162 44.4805 85.8462 45.9985 87.7822C45.0085 88.2882 43.0725 89.3002 40.1905 90.8182L39.3655 91.2802C38.5075 90.4222 37.5065 89.7842 36.3625 89.3662C35.2185 88.9262 34.0085 88.7062 32.7325 88.7062C30.6205 88.7062 29.0475 89.2672 28.0135 90.3892C26.9795 91.4892 26.4625 92.8532 26.4625 94.4812C26.4625 96.2412 27.0125 97.6602 28.1125 98.7382C29.2345 99.8162 30.9395 100.355 33.2275 100.355C34.2175 100.355 35.1745 100.212 36.0985 99.9262C37.0445 99.6402 37.8365 99.1452 38.4745 98.4412H32.0395V93.0952ZM64.4437 107.087C59.4057 107.087 55.6987 105.998 53.3227 103.82C50.9467 101.62 49.7587 98.5402 49.7587 94.5802C49.7587 90.6642 50.9357 87.6062 53.2897 85.4062C55.6657 83.2062 59.3837 82.1062 64.4437 82.1062C69.5257 82.1062 73.2437 83.2062 75.5977 85.4062C77.9737 87.6062 79.1617 90.6642 79.1617 94.5802C79.1617 98.5622 77.9847 101.642 75.6307 103.82C73.2767 105.998 69.5477 107.087 64.4437 107.087ZM64.4437 100.355C66.8857 100.355 68.6457 99.8932 69.7237 98.9692C70.8017 98.0232 71.3407 96.5602 71.3407 94.5802C71.3407 92.6442 70.8017 91.2032 69.7237 90.2572C68.6457 89.3112 66.8857 88.8382 64.4437 88.8382C62.0237 88.8382 60.2747 89.3112 59.1967 90.2572C58.1187 91.2032 57.5797 92.6442 57.5797 94.5802C57.5797 96.5382 58.1187 97.9902 59.1967 98.9362C60.2747 99.8822 62.0237 100.355 64.4437 100.355ZM97.4669 107.087C92.4289 107.087 88.7219 105.998 86.3459 103.82C83.9699 101.62 82.7819 98.5402 82.7819 94.5802C82.7819 90.6642 83.9589 87.6062 86.3129 85.4062C88.6889 83.2062 92.4069 82.1062 97.4669 82.1062C102.549 82.1062 106.267 83.2062 108.621 85.4062C110.997 87.6062 112.185 90.6642 112.185 94.5802C112.185 98.5622 111.008 101.642 108.654 103.82C106.3 105.998 102.571 107.087 97.4669 107.087ZM97.4669 100.355C99.9089 100.355 101.669 99.8932 102.747 98.9692C103.825 98.0232 104.364 96.5602 104.364 94.5802C104.364 92.6442 103.825 91.2032 102.747 90.2572C101.669 89.3112 99.9089 88.8382 97.4669 88.8382C95.0469 88.8382 93.2979 89.3112 92.2199 90.2572C91.1419 91.2032 90.6029 92.6442 90.6029 94.5802C90.6029 96.5382 91.1419 97.9902 92.2199 98.9362C93.2979 99.8822 95.0469 100.355 97.4669 100.355ZM126.365 82.4362C130.501 82.4362 133.768 82.9422 136.166 83.9542C138.564 84.9442 140.236 86.3302 141.182 88.1122C142.15 89.8722 142.634 92.0392 142.634 94.6132C142.634 97.0552 142.084 99.1892 140.984 101.015C139.884 102.841 138.234 104.26 136.034 105.272C133.834 106.262 131.128 106.757 127.916 106.757C125.958 106.757 123.967 106.757 121.943 106.757C119.919 106.757 117.873 106.746 115.805 106.724C115.981 102.39 116.069 98.3532 116.069 94.6132C116.069 90.8292 115.981 86.8802 115.805 82.7662C118.423 82.5462 121.943 82.4362 126.365 82.4362ZM128.84 100.19C130.886 100.19 132.25 99.6952 132.932 98.7052C133.614 97.7152 133.955 96.3512 133.955 94.6132C133.955 92.9412 133.592 91.5882 132.866 90.5542C132.162 89.5202 130.82 89.0032 128.84 89.0032C126.706 89.0032 125.111 89.0692 124.055 89.2012V100.19H128.84Z" fill="black"/>
</svg>
