<svg width="172" height="172" viewBox="0 0 162 162" fill="none" xmlns="http://www.w3.org/2000/svg">
<circle cx="81" cy="81" r="81" fill="#F6F247"/>
<path d="M61.19 48.679C65.326 48.679 68.593 49.185 70.991 50.197C73.389 51.187 75.061 52.573 76.007 54.355C76.975 56.115 77.459 58.282 77.459 60.856C77.459 63.298 76.909 65.432 75.809 67.258C74.709 69.084 73.059 70.503 70.859 71.515C68.659 72.505 65.953 73 62.741 73C60.783 73 58.792 73 56.768 73C54.744 73 52.698 72.989 50.63 72.967C50.806 68.633 50.894 64.596 50.894 60.856C50.894 57.072 50.806 53.123 50.63 49.009C53.248 48.789 56.768 48.679 61.19 48.679ZM63.665 66.433C65.711 66.433 67.075 65.938 67.757 64.948C68.439 63.958 68.78 62.594 68.78 60.856C68.78 59.184 68.417 57.831 67.691 56.797C66.987 55.763 65.645 55.246 63.665 55.246C61.531 55.246 59.936 55.312 58.88 55.444V66.433H63.665ZM95.7601 73.33C90.7221 73.33 87.0151 72.241 84.6391 70.063C82.2631 67.863 81.0751 64.783 81.0751 60.823C81.0751 56.907 82.2521 53.849 84.6061 51.649C86.9821 49.449 90.7001 48.349 95.7601 48.349C100.842 48.349 104.56 49.449 106.914 51.649C109.29 53.849 110.478 56.907 110.478 60.823C110.478 64.805 109.301 67.885 106.947 70.063C104.593 72.241 100.864 73.33 95.7601 73.33ZM95.7601 66.598C98.2021 66.598 99.9621 66.136 101.04 65.212C102.118 64.266 102.657 62.803 102.657 60.823C102.657 58.887 102.118 57.446 101.04 56.5C99.9621 55.554 98.2021 55.081 95.7601 55.081C93.3401 55.081 91.5911 55.554 90.5131 56.5C89.4351 57.446 88.8961 58.887 88.8961 60.823C88.8961 62.781 89.4351 64.233 90.5131 65.179C91.5911 66.125 93.3401 66.598 95.7601 66.598ZM32.0568 89.338H46.1478V103H40.3398L39.6468 97.159C38.9868 99.249 37.8098 100.8 36.1158 101.812C34.4218 102.824 32.3538 103.33 29.9118 103.33C27.6898 103.33 25.7098 102.835 23.9718 101.845C22.2558 100.855 20.9028 99.436 19.9128 97.588C18.9448 95.74 18.4608 93.584 18.4608 91.12C18.4608 87.182 19.6378 84.069 21.9918 81.781C24.3458 79.493 28.0088 78.349 32.9808 78.349C35.8188 78.349 38.3158 78.811 40.4718 79.735C42.6498 80.659 44.4978 82.089 46.0158 84.025C45.0258 84.531 43.0898 85.543 40.2078 87.061L39.3828 87.523C38.5248 86.665 37.5238 86.027 36.3798 85.609C35.2358 85.169 34.0258 84.949 32.7498 84.949C30.6378 84.949 29.0648 85.51 28.0308 86.632C26.9968 87.732 26.4798 89.096 26.4798 90.724C26.4798 92.484 27.0298 93.903 28.1298 94.981C29.2518 96.059 30.9568 96.598 33.2448 96.598C34.2348 96.598 35.1918 96.455 36.1158 96.169C37.0618 95.883 37.8538 95.388 38.4918 94.684H32.0568V89.338ZM64.461 103.33C59.423 103.33 55.716 102.241 53.34 100.063C50.964 97.863 49.776 94.783 49.776 90.823C49.776 86.907 50.953 83.849 53.307 81.649C55.683 79.449 59.401 78.349 64.461 78.349C69.543 78.349 73.261 79.449 75.615 81.649C77.991 83.849 79.179 86.907 79.179 90.823C79.179 94.805 78.002 97.885 75.648 100.063C73.294 102.241 69.565 103.33 64.461 103.33ZM64.461 96.598C66.903 96.598 68.663 96.136 69.741 95.212C70.819 94.266 71.358 92.803 71.358 90.823C71.358 88.887 70.819 87.446 69.741 86.5C68.663 85.554 66.903 85.081 64.461 85.081C62.041 85.081 60.292 85.554 59.214 86.5C58.136 87.446 57.597 88.887 57.597 90.823C57.597 92.781 58.136 94.233 59.214 95.179C60.292 96.125 62.041 96.598 64.461 96.598ZM97.4842 103.33C92.4462 103.33 88.7392 102.241 86.3632 100.063C83.9872 97.863 82.7992 94.783 82.7992 90.823C82.7992 86.907 83.9762 83.849 86.3302 81.649C88.7062 79.449 92.4242 78.349 97.4842 78.349C102.566 78.349 106.284 79.449 108.638 81.649C111.014 83.849 112.202 86.907 112.202 90.823C112.202 94.805 111.025 97.885 108.671 100.063C106.317 102.241 102.588 103.33 97.4842 103.33ZM97.4842 96.598C99.9262 96.598 101.686 96.136 102.764 95.212C103.842 94.266 104.381 92.803 104.381 90.823C104.381 88.887 103.842 87.446 102.764 86.5C101.686 85.554 99.9262 85.081 97.4842 85.081C95.0642 85.081 93.3152 85.554 92.2372 86.5C91.1592 87.446 90.6202 88.887 90.6202 90.823C90.6202 92.781 91.1592 94.233 92.2372 95.179C93.3152 96.125 95.0642 96.598 97.4842 96.598ZM126.382 78.679C130.518 78.679 133.785 79.185 136.183 80.197C138.581 81.187 140.253 82.573 141.199 84.355C142.167 86.115 142.651 88.282 142.651 90.856C142.651 93.298 142.101 95.432 141.001 97.258C139.901 99.084 138.251 100.503 136.051 101.515C133.851 102.505 131.145 103 127.933 103C125.975 103 123.984 103 121.96 103C119.936 103 117.89 102.989 115.822 102.967C115.998 98.633 116.086 94.596 116.086 90.856C116.086 87.072 115.998 83.123 115.822 79.009C118.44 78.789 121.96 78.679 126.382 78.679ZM128.857 96.433C130.903 96.433 132.267 95.938 132.949 94.948C133.631 93.958 133.972 92.594 133.972 90.856C133.972 89.184 133.609 87.831 132.883 86.797C132.179 85.763 130.837 85.246 128.857 85.246C126.723 85.246 125.128 85.312 124.072 85.444V96.433H128.857Z" fill="black"/>
</svg>
