<svg width="162" height="162" viewBox="0 0 152 152" fill="none" xmlns="http://www.w3.org/2000/svg">
<circle cx="76" cy="76" r="76" fill="#13BDD7"/>
<path d="M110.478 59.5206C112.626 62.6922 113.658 66.1856 113.374 69.5519C115.439 72.9405 116.075 77.152 115.193 80.7876C118.814 89.233 116.353 97.3571 104.834 102.542C103.786 103.013 102.59 103.552 101.393 104.091C86.1328 110.959 78.9362 107.361 72.1365 110.242C72.5631 112.389 71.2916 114.76 69.1971 115.703L59.6222 120.012C56.9293 121.225 53.8921 120.073 52.68 117.38L36.5193 81.4741C35.3746 78.9307 36.459 75.7439 39.152 74.5319L53.8135 67.9329C55.5786 64.2598 56.6552 55.859 58.5475 50.8693C59.6993 47.8321 52.7039 33.8888 61.9795 29.7139C70.5071 25.8757 78.347 28.1044 83.2625 39.0257C84.5419 41.8683 84.9535 44.3817 85.0809 46.6633L90.6163 44.1718C97.7975 40.9397 106.243 44.5148 109.206 51.0975C110.486 53.9401 110.815 56.6705 110.478 59.5206ZM104.839 71.7742C106.784 67.3007 104.247 62.8649 101.143 61.5635C102.639 60.8901 103.304 57.1722 102.092 54.4793C100.663 51.7041 96.9902 49.9389 93.8485 51.353L78.2893 58.356C75.7305 52.6709 78.7075 48.0925 76.0814 42.2579C74.4653 38.6673 72.2432 33.7303 65.2117 36.8951C63.6485 41.017 68.2271 47.5921 65.9235 53.6665C63.7022 59.524 62.5811 72.6226 58.2425 74.5754L56.7464 75.2487L69.3383 103.225C77.2675 99.6565 86.7905 102.027 97.4126 97.2462L103.098 94.6875C108.334 92.3307 111.079 88.0366 106.65 81.3942C108.288 79.0377 108.198 74.0406 104.839 71.7742ZM63.6907 106.667C62.8153 104.722 60.4289 103.817 58.484 104.692C56.3895 105.635 55.6342 107.954 56.5095 109.899C57.4522 111.993 59.6217 112.816 61.7162 111.873C63.6611 110.998 64.6334 108.761 63.6907 106.667Z" fill="black"/>
</svg>
