<svg width="168" height="168" viewBox="0 0 158 158" fill="none" xmlns="http://www.w3.org/2000/svg">
<circle cx="79" cy="79" r="79" fill="#DBDBDB"/>
<path d="M116.329 64.103C118.63 67.5012 119.736 71.2441 119.432 74.8508C121.644 78.4814 122.326 82.9938 121.38 86.8891C125.26 95.9377 122.624 104.642 110.281 110.197C109.159 110.702 107.877 111.28 106.594 111.857C90.2444 119.216 82.5338 115.361 75.2484 118.447C75.7055 120.748 74.3431 123.288 72.099 124.298L61.8402 128.916C58.9549 130.214 55.7008 128.98 54.4022 126.095L37.0871 87.6246C35.8606 84.8996 37.0225 81.4852 39.9078 80.1865L55.6166 73.1162C57.5078 69.1808 58.6613 60.1799 60.6887 54.8338C61.9228 51.5796 54.4277 36.6403 64.3659 32.1673C73.5026 28.055 81.9025 30.4428 87.1691 42.1442C88.5399 45.1898 88.9809 47.8828 89.1174 50.3273L95.0482 47.6579C102.742 44.1949 111.791 48.0254 114.966 55.0783C116.337 58.1239 116.69 61.0493 116.329 64.103ZM110.287 77.2319C112.37 72.4389 109.653 67.6862 106.327 66.2918C107.93 65.5704 108.643 61.5869 107.344 58.7016C105.813 55.7282 101.877 53.837 98.5112 55.352L81.8407 62.8552C79.0992 56.7641 82.2887 51.8587 79.475 45.6072C77.7435 41.7602 75.3627 36.4705 67.8289 39.8614C66.1541 44.2777 71.0598 51.3225 68.5917 57.8308C66.2117 64.1067 65.0104 78.1409 60.3619 80.2331L58.759 80.9546L72.2503 110.929C80.7459 107.106 90.9491 109.646 102.33 104.523L108.421 101.782C114.031 99.2567 116.972 94.6559 112.227 87.539C113.982 85.0142 113.886 79.6602 110.287 77.2319ZM66.1993 114.617C65.2614 112.533 62.7046 111.563 60.6208 112.501C58.3766 113.511 57.5673 115.996 58.5052 118.08C59.5153 120.324 61.8397 121.205 64.0838 120.195C66.1676 119.257 67.2093 116.861 66.1993 114.617Z" fill="black"/>
</svg>
