<svg width="180" height="180" viewBox="0 0 170 170" fill="none" xmlns="http://www.w3.org/2000/svg">
<path d="M78.856 5.80773L100.493 20.1591L126.316 17.4542L135.385 41.7826L157.866 54.7724L150.903 79.7853L161.455 103.508L141.12 119.651L135.713 145.046L109.773 146.153L90.4715 163.52L68.8345 149.168L43.0119 151.873L33.9428 127.545L11.4619 114.555L18.4247 89.5423L7.87254 65.8194L28.2077 49.6762L33.6148 24.2816L59.5551 23.1742L78.856 5.80773Z" fill="#F13263"/>
<circle cx="84.5" cy="84.5" r="49" stroke="#424242" stroke-dasharray="2 3"/>
<path d="M47.4598 74.946C47.3245 78.2133 47.2568 81.7223 47.2568 85.473C47.2568 89.2237 47.3245 92.7327 47.4598 96H40.6448V88.112H29.9728V96H23.1578C23.3125 92.2493 23.3898 88.7403 23.3898 85.473C23.3898 82.2057 23.3125 78.6967 23.1578 74.946H29.9728V82.834H40.6448V74.946H47.4598ZM57.4929 90.693C64.8396 90.6543 70.1659 90.548 73.4719 90.374C73.3366 91.1667 73.2496 91.9883 73.2109 92.839C73.1916 93.6703 73.1819 94.724 73.1819 96H50.6489C50.8036 92.2493 50.8809 88.7403 50.8809 85.473C50.8809 82.2057 50.8036 78.6967 50.6489 74.946H73.1819V80.195H57.4929V82.979C58.4209 82.9983 59.7936 83.008 61.6109 83.008C64.6849 83.008 67.8652 82.95 71.1519 82.834V87.822C67.8652 87.706 64.6849 87.648 61.6109 87.648C59.7936 87.648 58.4209 87.6577 57.4929 87.677V90.693ZM83.7433 90.142C89.35 90.1033 93.99 90.0067 97.6633 89.852C97.412 90.838 97.2573 91.7853 97.1993 92.694C97.1413 93.6027 97.1123 94.7047 97.1123 96H76.6673C76.822 92.2493 76.8993 88.7403 76.8993 85.473C76.8993 82.2057 76.822 78.6967 76.6673 74.946H83.7433V90.142ZM107.355 90.142C112.961 90.1033 117.601 90.0067 121.275 89.852C121.023 90.838 120.869 91.7853 120.811 92.694C120.753 93.6027 120.724 94.7047 120.724 96H100.279C100.433 92.2493 100.511 88.7403 100.511 85.473C100.511 82.2057 100.433 78.6967 100.279 74.946H107.355V90.142ZM135.917 96.29C131.489 96.29 128.232 95.333 126.144 93.419C124.056 91.4857 123.012 88.779 123.012 85.299C123.012 81.8577 124.046 79.1703 126.115 77.237C128.203 75.3037 131.47 74.337 135.917 74.337C140.383 74.337 143.65 75.3037 145.719 77.237C147.807 79.1703 148.851 81.8577 148.851 85.299C148.851 88.7983 147.816 91.505 145.748 93.419C143.679 95.333 140.402 96.29 135.917 96.29ZM135.917 90.374C138.063 90.374 139.609 89.968 140.557 89.156C141.504 88.3247 141.978 87.039 141.978 85.299C141.978 83.5977 141.504 82.3313 140.557 81.5C139.609 80.6687 138.063 80.253 135.917 80.253C133.79 80.253 132.253 80.6687 131.306 81.5C130.358 82.3313 129.885 83.5977 129.885 85.299C129.885 87.0197 130.358 88.2957 131.306 89.127C132.253 89.9583 133.79 90.374 135.917 90.374Z" fill="black"/>
</svg>
