<svg width="199" height="199" viewBox="0 0 189 189" fill="none" xmlns="http://www.w3.org/2000/svg">
<rect y="94.5" width="133.643" height="133.643" rx="28" transform="rotate(-45 0 94.5)" fill="#DBDBDB"/>
<path d="M37.7515 90.1208C38.2502 89.3728 38.6609 88.6762 38.9835 88.0308C39.3209 87.3855 39.6435 86.6375 39.9515 85.7868C40.9929 86.3882 42.2029 86.8575 43.5815 87.1948C44.9602 87.5322 46.2435 87.7008 47.4315 87.7008C48.6489 87.7008 49.5069 87.5982 50.0055 87.3928C50.5042 87.1728 50.7535 86.9382 50.7535 86.6888C50.7535 85.7942 49.3895 85.3468 46.6615 85.3468C43.6695 85.3468 41.4989 85.0388 40.1495 84.4228C38.8002 83.7922 38.1255 82.7802 38.1255 81.3868C38.1255 79.4068 38.9469 77.9475 40.5895 77.0088C42.2322 76.0701 44.3662 75.6008 46.9915 75.6008C48.5169 75.6008 50.0789 75.7988 51.6775 76.1948C53.2909 76.5762 54.7429 77.1042 56.0335 77.7788C55.6082 78.7468 55.1609 79.9275 54.6915 81.3208C54.6035 81.6142 54.5302 81.8342 54.4715 81.9808C53.7235 81.3795 52.5942 80.8808 51.0835 80.4848C49.5729 80.0741 48.2382 79.8688 47.0795 79.8688C45.6862 79.8688 44.7475 79.9641 44.2635 80.1548C43.7795 80.3308 43.5375 80.5948 43.5375 80.9468C43.5375 81.2988 43.8675 81.5848 44.5275 81.8048C45.2022 82.0102 46.1702 82.1128 47.4315 82.1128C50.5409 82.1128 52.7995 82.4722 54.2075 83.1908C55.6155 83.8948 56.3195 84.9802 56.3195 86.4468C56.3195 88.5002 55.5715 89.9815 54.0755 90.8908C52.5795 91.7855 50.3135 92.2328 47.2775 92.2328C45.6495 92.2328 43.9922 92.0568 42.3055 91.7048C40.6189 91.3382 39.1009 90.8102 37.7515 90.1208ZM68.3058 92.2328C64.9471 92.2328 62.4758 91.5068 60.8918 90.0548C59.3078 88.5882 58.5158 86.5348 58.5158 83.8948C58.5158 81.2841 59.3004 79.2455 60.8698 77.7788C62.4538 76.3122 64.9324 75.5788 68.3058 75.5788C71.6938 75.5788 74.1724 76.3122 75.7418 77.7788C77.3258 79.2455 78.1178 81.2841 78.1178 83.8948C78.1178 86.5495 77.3331 88.6028 75.7638 90.0548C74.1944 91.5068 71.7084 92.2328 68.3058 92.2328ZM68.3058 87.7448C69.9338 87.7448 71.1071 87.4368 71.8258 86.8208C72.5444 86.1902 72.9038 85.2148 72.9038 83.8948C72.9038 82.6042 72.5444 81.6435 71.8258 81.0128C71.1071 80.3822 69.9338 80.0668 68.3058 80.0668C66.6924 80.0668 65.5264 80.3822 64.8078 81.0128C64.0891 81.6435 63.7298 82.6042 63.7298 83.8948C63.7298 85.2002 64.0891 86.1682 64.8078 86.7988C65.5264 87.4295 66.6924 87.7448 68.3058 87.7448ZM89.9912 92.2328C86.6766 92.2328 84.2346 91.5288 82.6652 90.1208C81.0959 88.7128 80.3112 86.7035 80.3112 84.0928C80.3112 81.4675 81.0959 79.3922 82.6652 77.8668C84.2346 76.3415 86.6766 75.5788 89.9912 75.5788C94.6259 75.5788 97.7279 77.1701 99.2972 80.3528C97.9772 80.8075 96.4299 81.4895 94.6552 82.3988C94.2299 81.5775 93.5552 80.9688 92.6312 80.5728C91.7219 80.1768 90.7906 79.9788 89.8372 79.9788C88.4292 79.9788 87.3806 80.3528 86.6912 81.1008C86.0019 81.8342 85.6572 82.7435 85.6572 83.8288C85.6572 85.0022 86.0239 85.9628 86.7572 86.7108C87.5052 87.4442 88.6419 87.8108 90.1672 87.8108C91.3846 87.8108 92.3526 87.6128 93.0712 87.2168C93.7899 86.8062 94.3179 86.1608 94.6552 85.2808C95.8579 85.9262 97.3979 86.6522 99.2752 87.4588C98.5419 89.2335 97.3172 90.4728 95.6012 91.1768C93.8852 91.8808 92.0152 92.2328 89.9912 92.2328ZM114.287 80.4188C112.542 80.3308 111.251 80.2795 110.415 80.2648V87.7888C111.266 87.7742 112.556 87.7228 114.287 87.6348V92.0128H101.505V87.6348C103.192 87.7228 104.475 87.7742 105.355 87.7888V80.2648C104.475 80.2795 103.192 80.3308 101.505 80.4188V76.0408H114.287V80.4188ZM130.372 92.0128C130.093 91.1768 129.719 90.1282 129.25 88.8668H122.232L121.132 92.0128H115.61L121.77 76.0408H129.866L136.07 92.0128H130.372ZM127.996 85.4348C127.439 83.8948 126.867 82.3548 126.28 80.8148L125.752 79.3848C125.239 80.7195 124.483 82.7362 123.486 85.4348H127.996ZM142.622 87.5688C146.876 87.5395 150.396 87.4662 153.182 87.3488C152.992 88.0968 152.874 88.8155 152.83 89.5048C152.786 90.1942 152.764 91.0302 152.764 92.0128H137.254C137.372 89.1675 137.43 86.5055 137.43 84.0268C137.43 81.5482 137.372 78.8862 137.254 76.0408H142.622V87.5688ZM49.513 108.419C47.7677 108.331 46.477 108.279 45.641 108.265V115.789C46.4917 115.774 47.7824 115.723 49.513 115.635V120.013H36.731V115.635C38.4177 115.723 39.701 115.774 40.581 115.789V108.265C39.701 108.279 38.4177 108.331 36.731 108.419V104.041H49.513V108.419ZM72.286 104.041L74.002 120.013H68.304L67.952 108.617L65.752 120.013H59.988L57.744 108.705L57.414 120.013H51.716L53.432 104.041H60.912L62.826 114.447L64.498 104.041H72.286ZM86.185 104.063C89.1036 104.063 91.135 104.583 92.279 105.625C93.423 106.651 93.995 108.103 93.995 109.981C93.995 111.271 93.7676 112.371 93.313 113.281C92.8583 114.175 92.059 114.879 90.915 115.393C89.771 115.891 88.1943 116.141 86.185 116.141H81.609V120.013H76.197C76.3143 117.167 76.373 114.505 76.373 112.027C76.373 109.548 76.3143 106.886 76.197 104.041H81.609V104.063H86.185ZM84.645 111.895C85.8623 111.895 86.7716 111.851 87.373 111.763C87.989 111.66 88.4143 111.484 88.649 111.235C88.8983 110.985 89.023 110.619 89.023 110.135C89.023 109.651 88.9056 109.291 88.671 109.057C88.451 108.807 88.033 108.639 87.417 108.551C86.8156 108.463 85.8916 108.419 84.645 108.419H81.609V111.895H84.645ZM107.878 120.013C107.6 119.177 107.226 118.128 106.756 116.867H99.7383L98.6383 120.013H93.1163L99.2763 104.041H107.372L113.576 120.013H107.878ZM105.502 113.435C104.945 111.895 104.373 110.355 103.786 108.815L103.258 107.385C102.745 108.719 101.99 110.736 100.992 113.435H105.502ZM123.775 120.233C120.46 120.233 118.018 119.529 116.449 118.121C114.879 116.713 114.095 114.703 114.095 112.093C114.095 109.467 114.879 107.392 116.449 105.867C118.018 104.341 120.46 103.579 123.775 103.579C128.409 103.579 131.511 105.17 133.081 108.353C131.761 108.807 130.213 109.489 128.439 110.399C128.013 109.577 127.339 108.969 126.415 108.573C125.505 108.177 124.574 107.979 123.621 107.979C122.213 107.979 121.164 108.353 120.475 109.101C119.785 109.834 119.441 110.743 119.441 111.829C119.441 113.002 119.807 113.963 120.541 114.711C121.289 115.444 122.425 115.811 123.951 115.811C125.168 115.811 126.136 115.613 126.855 115.217C127.573 114.806 128.101 114.161 128.439 113.281C129.641 113.926 131.181 114.652 133.059 115.459C132.325 117.233 131.101 118.473 129.385 119.177C127.669 119.881 125.799 120.233 123.775 120.233ZM154.186 108.661C151.884 108.587 149.647 108.543 147.476 108.529V120.013H141.976V108.529C139.791 108.543 137.562 108.587 135.288 108.661V104.041H154.186V108.661Z" fill="black"/>
</svg>
