<svg width="179" height="179" viewBox="0 0 169 169" fill="none" xmlns="http://www.w3.org/2000/svg">
<rect y="84.5" width="119.501" height="119.501" rx="28" transform="rotate(-45 0 84.5)" fill="#67D9D1"/>
<path d="M28.8961 77.0957C29.3494 76.4157 29.7228 75.7823 30.0161 75.1957C30.3228 74.609 30.6161 73.929 30.8961 73.1557C31.8428 73.7023 32.9428 74.129 34.1961 74.4357C35.4494 74.7423 36.6161 74.8957 37.6961 74.8957C38.8028 74.8957 39.5828 74.8023 40.0361 74.6157C40.4894 74.4157 40.7161 74.2023 40.7161 73.9757C40.7161 73.1623 39.4761 72.7557 36.9961 72.7557C34.2761 72.7557 32.3028 72.4757 31.0761 71.9157C29.8494 71.3423 29.2361 70.4223 29.2361 69.1557C29.2361 67.3557 29.9828 66.029 31.4761 65.1757C32.9694 64.3223 34.9094 63.8957 37.2961 63.8957C38.6828 63.8957 40.1028 64.0757 41.5561 64.4357C43.0228 64.7823 44.3428 65.2623 45.5161 65.8757C45.1294 66.7557 44.7228 67.829 44.2961 69.0957C44.2161 69.3623 44.1494 69.5623 44.0961 69.6957C43.4161 69.149 42.3894 68.6957 41.0161 68.3357C39.6428 67.9623 38.4294 67.7757 37.3761 67.7757C36.1094 67.7757 35.2561 67.8623 34.8161 68.0357C34.3761 68.1957 34.1561 68.4357 34.1561 68.7557C34.1561 69.0757 34.4561 69.3357 35.0561 69.5357C35.6694 69.7223 36.5494 69.8157 37.6961 69.8157C40.5228 69.8157 42.5761 70.1423 43.8561 70.7957C45.1361 71.4357 45.7761 72.4223 45.7761 73.7557C45.7761 75.6223 45.0961 76.969 43.7361 77.7957C42.3761 78.609 40.3161 79.0157 37.5561 79.0157C36.0761 79.0157 34.5694 78.8557 33.0361 78.5357C31.5028 78.2023 30.1228 77.7223 28.8961 77.0957ZM56.6727 79.0157C53.6193 79.0157 51.3727 78.3557 49.9327 77.0357C48.4927 75.7023 47.7727 73.8357 47.7727 71.4357C47.7727 69.0623 48.486 67.209 49.9127 65.8757C51.3527 64.5423 53.606 63.8757 56.6727 63.8757C59.7527 63.8757 62.006 64.5423 63.4327 65.8757C64.8727 67.209 65.5927 69.0623 65.5927 71.4357C65.5927 73.849 64.8793 75.7157 63.4527 77.0357C62.026 78.3557 59.766 79.0157 56.6727 79.0157ZM56.6727 74.9357C58.1527 74.9357 59.2193 74.6557 59.8727 74.0957C60.526 73.5223 60.8527 72.6357 60.8527 71.4357C60.8527 70.2623 60.526 69.389 59.8727 68.8157C59.2193 68.2423 58.1527 67.9557 56.6727 67.9557C55.206 67.9557 54.146 68.2423 53.4927 68.8157C52.8393 69.389 52.5127 70.2623 52.5127 71.4357C52.5127 72.6223 52.8393 73.5023 53.4927 74.0757C54.146 74.649 55.206 74.9357 56.6727 74.9357ZM76.3867 79.0157C73.3734 79.0157 71.1534 78.3757 69.7267 77.0957C68.3001 75.8157 67.5867 73.989 67.5867 71.6157C67.5867 69.229 68.3001 67.3423 69.7267 65.9557C71.1534 64.569 73.3734 63.8757 76.3867 63.8757C80.6001 63.8757 83.4201 65.3223 84.8467 68.2157C83.6467 68.629 82.2401 69.249 80.6267 70.0757C80.2401 69.329 79.6267 68.7757 78.7867 68.4157C77.9601 68.0557 77.1134 67.8757 76.2467 67.8757C74.9667 67.8757 74.0134 68.2157 73.3867 68.8957C72.7601 69.5623 72.4467 70.389 72.4467 71.3757C72.4467 72.4423 72.7801 73.3157 73.4467 73.9957C74.1267 74.6623 75.1601 74.9957 76.5467 74.9957C77.6534 74.9957 78.5334 74.8157 79.1867 74.4557C79.8401 74.0823 80.3201 73.4957 80.6267 72.6957C81.7201 73.2823 83.1201 73.9423 84.8267 74.6757C84.1601 76.289 83.0467 77.4157 81.4867 78.0557C79.9267 78.6957 78.2267 79.0157 76.3867 79.0157ZM98.4739 68.2757C96.8873 68.1957 95.7139 68.149 94.9539 68.1357V74.9757C95.7273 74.9623 96.9006 74.9157 98.4739 74.8357V78.8157H86.8539V74.8357C88.3873 74.9157 89.5539 74.9623 90.3539 74.9757V68.1357C89.5539 68.149 88.3873 68.1957 86.8539 68.2757V64.2957H98.4739V68.2757ZM113.097 78.8157C112.843 78.0557 112.503 77.1023 112.077 75.9557H105.697L104.697 78.8157H99.6766L105.277 64.2957H112.637L118.277 78.8157H113.097ZM110.937 72.8357C110.43 71.4357 109.91 70.0357 109.377 68.6357L108.897 67.3357C108.43 68.549 107.743 70.3823 106.837 72.8357H110.937ZM124.233 74.7757C128.1 74.749 131.3 74.6823 133.833 74.5757C133.66 75.2557 133.553 75.909 133.513 76.5357C133.473 77.1623 133.453 77.9223 133.453 78.8157H119.353C119.46 76.229 119.513 73.809 119.513 71.5557C119.513 69.3023 119.46 66.8823 119.353 64.2957H124.233V74.7757ZM39.5884 96.2757C38.0017 96.1957 36.8284 96.149 36.0684 96.1357V102.976C36.8417 102.962 38.015 102.916 39.5884 102.836V106.816H27.9684V102.836C29.5017 102.916 30.6684 102.962 31.4684 102.976V96.1357C30.6684 96.149 29.5017 96.1957 27.9684 96.2757V92.2957H39.5884V96.2757ZM60.291 92.2957L61.851 106.816H56.671L56.351 96.4557L54.351 106.816H49.111L47.071 96.5357L46.771 106.816H41.591L43.151 92.2957H49.951L51.691 101.756L53.211 92.2957H60.291ZM72.9265 92.3157C75.5798 92.3157 77.4265 92.789 78.4665 93.7357C79.5065 94.669 80.0265 95.989 80.0265 97.6957C80.0265 98.869 79.8198 99.869 79.4065 100.696C78.9932 101.509 78.2665 102.149 77.2265 102.616C76.1865 103.069 74.7532 103.296 72.9265 103.296H68.7665V106.816H63.8465C63.9532 104.229 64.0065 101.809 64.0065 99.5557C64.0065 97.3023 63.9532 94.8823 63.8465 92.2957H68.7665V92.3157H72.9265ZM71.5265 99.4357C72.6332 99.4357 73.4598 99.3957 74.0065 99.3157C74.5665 99.2223 74.9532 99.0623 75.1665 98.8357C75.3932 98.609 75.5065 98.2757 75.5065 97.8357C75.5065 97.3957 75.3998 97.069 75.1865 96.8557C74.9865 96.629 74.6065 96.4757 74.0465 96.3957C73.4998 96.3157 72.6598 96.2757 71.5265 96.2757H68.7665V99.4357H71.5265ZM92.6478 106.816C92.3944 106.056 92.0544 105.102 91.6278 103.956H85.2478L84.2478 106.816H79.2278L84.8278 92.2957H92.1878L97.8278 106.816H92.6478ZM90.4878 100.836C89.9811 99.4357 89.4611 98.0357 88.9278 96.6357L88.4478 95.3357C87.9811 96.549 87.2944 98.3823 86.3878 100.836H90.4878ZM107.099 107.016C104.086 107.016 101.866 106.376 100.439 105.096C99.0122 103.816 98.2988 101.989 98.2988 99.6157C98.2988 97.229 99.0122 95.3423 100.439 93.9557C101.866 92.569 104.086 91.8757 107.099 91.8757C111.312 91.8757 114.132 93.3223 115.559 96.2157C114.359 96.629 112.952 97.249 111.339 98.0757C110.952 97.329 110.339 96.7757 109.499 96.4157C108.672 96.0557 107.826 95.8757 106.959 95.8757C105.679 95.8757 104.726 96.2157 104.099 96.8957C103.472 97.5623 103.159 98.389 103.159 99.3757C103.159 100.442 103.492 101.316 104.159 101.996C104.839 102.662 105.872 102.996 107.259 102.996C108.366 102.996 109.246 102.816 109.899 102.456C110.552 102.082 111.032 101.496 111.339 100.696C112.432 101.282 113.832 101.942 115.539 102.676C114.872 104.289 113.759 105.416 112.199 106.056C110.639 106.696 108.939 107.016 107.099 107.016ZM134.746 96.4957C132.653 96.429 130.619 96.389 128.646 96.3757V106.816H123.646V96.3757C121.659 96.389 119.633 96.429 117.566 96.4957V92.2957H134.746V96.4957Z" fill="black"/>
</svg>
