<svg width="171" height="171" viewBox="0 0 161 161" fill="none" xmlns="http://www.w3.org/2000/svg">
<path d="M74.6221 5.4959L90.6365 18.1521L109.93 11.4893L118.229 30.1381L138.409 33.2048L137.09 53.5739L153.534 65.6675L142.9 83.0907L151.84 101.441L134.327 111.926L133.715 132.329L113.336 133.475L103.312 151.256L84.7346 142.801L67.596 153.887L55.0758 137.766L34.7482 139.618L31.1538 119.525L12.294 111.718L18.449 92.2565L5.37754 76.5792L19.8717 62.207L15.5832 42.2509L35.0962 36.2608L40.573 16.5975L60.6347 20.3617L74.6221 5.4959Z" fill="#F5B3CF"/>
<path d="M32.7217 69.3473C35.1537 69.3473 36.3697 70.1206 36.3697 71.6673C36.3697 72.3926 36.2044 73.0113 35.8737 73.5233C35.5431 74.0246 34.9511 74.4193 34.0977 74.7073C33.2444 74.9846 32.0604 75.1233 30.5457 75.1233H23.3457C23.4311 73.054 23.4737 71.118 23.4737 69.3153C23.4737 67.5126 23.4311 65.5766 23.3457 63.5073H27.1057V63.5233H30.5137C31.8364 63.5233 32.8764 63.6353 33.6337 63.8593C34.4017 64.0726 34.9404 64.3873 35.2497 64.8033C35.5697 65.2193 35.7297 65.7473 35.7297 66.3873C35.7297 67.038 35.5004 67.6193 35.0417 68.1313C34.5937 68.6326 33.8204 69.038 32.7217 69.3473ZM27.1057 66.4353V67.9233H30.1777C30.8391 67.9233 31.2977 67.8646 31.5537 67.7473C31.8204 67.63 31.9537 67.4166 31.9537 67.1073C31.9537 66.862 31.8151 66.6913 31.5377 66.5953C31.2711 66.4886 30.8177 66.4353 30.1777 66.4353H27.1057ZM30.1777 72.1953C30.7324 72.1953 31.1537 72.174 31.4417 72.1313C31.7404 72.078 31.9537 71.9926 32.0817 71.8753C32.2097 71.7473 32.2737 71.5766 32.2737 71.3633C32.2737 71.086 32.1191 70.8886 31.8097 70.7713C31.5111 70.6433 30.9671 70.5793 30.1777 70.5793H27.1057V72.1953H30.1777ZM47.9146 63.4913H51.8826V69.8593C51.8613 71.4273 51.3226 72.7233 50.2666 73.7473C49.2213 74.7713 47.456 75.2833 44.9706 75.2833C42.4533 75.2833 40.7306 74.798 39.8026 73.8273C38.8746 72.846 38.4213 71.5606 38.4426 69.9713V63.4913H42.4106V69.7153C42.4106 70.1846 42.4426 70.5686 42.5066 70.8673C42.5813 71.1553 42.8053 71.4273 43.1786 71.6833C43.5626 71.9393 44.1759 72.0673 45.0186 72.0673C45.9359 72.0673 46.6079 71.9393 47.0346 71.6833C47.4613 71.4166 47.7119 71.1233 47.7866 70.8033C47.8719 70.4833 47.9146 70.0726 47.9146 69.5713V63.4913ZM53.9614 73.7473C54.324 73.2033 54.6227 72.6966 54.8574 72.2273C55.1027 71.758 55.3374 71.214 55.5614 70.5953C56.3187 71.0326 57.1987 71.374 58.2014 71.6193C59.204 71.8646 60.1374 71.9873 61.0014 71.9873C61.8867 71.9873 62.5107 71.9126 62.8734 71.7633C63.236 71.6033 63.4174 71.4326 63.4174 71.2513C63.4174 70.6006 62.4254 70.2753 60.4414 70.2753C58.2654 70.2753 56.6867 70.0513 55.7054 69.6033C54.724 69.1446 54.2334 68.4086 54.2334 67.3953C54.2334 65.9553 54.8307 64.894 56.0254 64.2113C57.22 63.5286 58.772 63.1873 60.6814 63.1873C61.7907 63.1873 62.9267 63.3313 64.0894 63.6193C65.2627 63.8966 66.3187 64.2806 67.2574 64.7713C66.948 65.4753 66.6227 66.334 66.2814 67.3473C66.2174 67.5606 66.164 67.7206 66.1214 67.8273C65.5774 67.39 64.756 67.0273 63.6574 66.7393C62.5587 66.4406 61.588 66.2913 60.7454 66.2913C59.732 66.2913 59.0494 66.3606 58.6974 66.4993C58.3454 66.6273 58.1694 66.8193 58.1694 67.0753C58.1694 67.3313 58.4094 67.5393 58.8894 67.6993C59.38 67.8486 60.084 67.9233 61.0014 67.9233C63.2627 67.9233 64.9054 68.1846 65.9294 68.7073C66.9534 69.2193 67.4654 70.0086 67.4654 71.0753C67.4654 72.5686 66.9214 73.646 65.8334 74.3073C64.7454 74.958 63.0974 75.2833 60.8894 75.2833C59.7054 75.2833 58.5 75.1553 57.2734 74.8993C56.0467 74.6326 54.9427 74.2486 53.9614 73.7473ZM78.8386 66.6913C77.5693 66.6273 76.6306 66.59 76.0226 66.5793V72.0513C76.6413 72.0406 77.58 72.0033 78.8386 71.9393V75.1233H69.5426V71.9393C70.7693 72.0033 71.7026 72.0406 72.3426 72.0513V66.5793C71.7026 66.59 70.7693 66.6273 69.5426 66.6913V63.5073H78.8386V66.6913ZM94.3447 63.5233C94.2701 65.326 94.2327 67.2566 94.2327 69.3153C94.2327 71.3846 94.2701 73.3206 94.3447 75.1233H88.6167L84.7447 66.3873L85.0327 75.1233H80.9207C81.0061 73.054 81.0487 71.118 81.0487 69.3153C81.0487 67.5233 81.0061 65.5926 80.9207 63.5233H86.8087L90.6967 72.4993L90.4247 63.5233H94.3447ZM100.2 72.1953C104.253 72.174 107.192 72.1153 109.016 72.0193C108.941 72.4566 108.893 72.91 108.872 73.3793C108.861 73.838 108.856 74.4193 108.856 75.1233H96.4239C96.5092 73.054 96.5519 71.118 96.5519 69.3153C96.5519 67.5126 96.5092 65.5766 96.4239 63.5073H108.856V66.4033H100.2V67.9393C100.712 67.95 101.469 67.9553 102.472 67.9553C104.168 67.9553 105.923 67.9233 107.736 67.8593V70.6113C105.923 70.5473 104.168 70.5153 102.472 70.5153C101.469 70.5153 100.712 70.5206 100.2 70.5313V72.1953ZM111.099 73.7473C111.462 73.2033 111.76 72.6966 111.995 72.2273C112.24 71.758 112.475 71.214 112.699 70.5953C113.456 71.0326 114.336 71.374 115.339 71.6193C116.342 71.8646 117.275 71.9873 118.139 71.9873C119.024 71.9873 119.648 71.9126 120.011 71.7633C120.374 71.6033 120.555 71.4326 120.555 71.2513C120.555 70.6006 119.563 70.2753 117.579 70.2753C115.403 70.2753 113.824 70.0513 112.843 69.6033C111.862 69.1446 111.371 68.4086 111.371 67.3953C111.371 65.9553 111.968 64.894 113.163 64.2113C114.358 63.5286 115.91 63.1873 117.819 63.1873C118.928 63.1873 120.064 63.3313 121.227 63.6193C122.4 63.8966 123.456 64.2806 124.395 64.7713C124.086 65.4753 123.76 66.334 123.419 67.3473C123.355 67.5606 123.302 67.7206 123.259 67.8273C122.715 67.39 121.894 67.0273 120.795 66.7393C119.696 66.4406 118.726 66.2913 117.883 66.2913C116.87 66.2913 116.187 66.3606 115.835 66.4993C115.483 66.6273 115.307 66.8193 115.307 67.0753C115.307 67.3313 115.547 67.5393 116.027 67.6993C116.518 67.8486 117.222 67.9233 118.139 67.9233C120.4 67.9233 122.043 68.1846 123.067 68.7073C124.091 69.2193 124.603 70.0086 124.603 71.0753C124.603 72.5686 124.059 73.646 122.971 74.3073C121.883 74.958 120.235 75.2833 118.027 75.2833C116.843 75.2833 115.638 75.1553 114.411 74.8993C113.184 74.6326 112.08 74.2486 111.099 73.7473ZM126.68 73.7473C127.043 73.2033 127.341 72.6966 127.576 72.2273C127.821 71.758 128.056 71.214 128.28 70.5953C129.037 71.0326 129.917 71.374 130.92 71.6193C131.923 71.8646 132.856 71.9873 133.72 71.9873C134.605 71.9873 135.229 71.9126 135.592 71.7633C135.955 71.6033 136.136 71.4326 136.136 71.2513C136.136 70.6006 135.144 70.2753 133.16 70.2753C130.984 70.2753 129.405 70.0513 128.424 69.6033C127.443 69.1446 126.952 68.4086 126.952 67.3953C126.952 65.9553 127.549 64.894 128.744 64.2113C129.939 63.5286 131.491 63.1873 133.4 63.1873C134.509 63.1873 135.645 63.3313 136.808 63.6193C137.981 63.8966 139.037 64.2806 139.976 64.7713C139.667 65.4753 139.341 66.334 139 67.3473C138.936 67.5606 138.883 67.7206 138.84 67.8273C138.296 67.39 137.475 67.0273 136.376 66.7393C135.277 66.4406 134.307 66.2913 133.464 66.2913C132.451 66.2913 131.768 66.3606 131.416 66.4993C131.064 66.6273 130.888 66.8193 130.888 67.0753C130.888 67.3313 131.128 67.5393 131.608 67.6993C132.099 67.8486 132.803 67.9233 133.72 67.9233C135.981 67.9233 137.624 68.1846 138.648 68.7073C139.672 69.2193 140.184 70.0086 140.184 71.0753C140.184 72.5686 139.64 73.646 138.552 74.3073C137.464 74.958 135.816 75.2833 133.608 75.2833C132.424 75.2833 131.219 75.1553 129.992 74.8993C128.765 74.6326 127.661 74.2486 126.68 73.7473Z" fill="black"/>
<path d="M47.1237 102.282C45.8544 102.218 44.9157 102.181 44.3077 102.17V107.642C44.9264 107.632 45.865 107.594 47.1237 107.53V110.714H37.8277V107.53C39.0543 107.594 39.9877 107.632 40.6277 107.642V102.17C39.9877 102.181 39.0543 102.218 37.8277 102.282V99.0984H47.1237V102.282ZM64.0058 99.0984L65.2538 110.714H61.1098L60.8538 102.426L59.2538 110.714H55.0618L53.4298 102.49L53.1898 110.714H49.0458L50.2938 99.0984H55.7338L57.1258 106.666L58.3418 99.0984H64.0058ZM74.4342 99.1144C76.5568 99.1144 78.0342 99.493 78.8662 100.25C79.6982 100.997 80.1142 102.053 80.1142 103.418C80.1142 104.357 79.9488 105.157 79.6182 105.818C79.2875 106.469 78.7062 106.981 77.8742 107.354C77.0422 107.717 75.8955 107.898 74.4342 107.898H71.1062V110.714H67.1702C67.2555 108.645 67.2982 106.709 67.2982 104.906C67.2982 103.104 67.2555 101.168 67.1702 99.0984H71.1062V99.1144H74.4342ZM73.3142 104.81C74.1995 104.81 74.8608 104.778 75.2982 104.714C75.7462 104.64 76.0555 104.512 76.2262 104.33C76.4075 104.149 76.4982 103.882 76.4982 103.53C76.4982 103.178 76.4128 102.917 76.2422 102.746C76.0822 102.565 75.7782 102.442 75.3302 102.378C74.8928 102.314 74.2208 102.282 73.3142 102.282H71.1062V104.81H73.3142ZM90.5312 110.714C90.3285 110.106 90.0565 109.344 89.7152 108.426H84.6112L83.8112 110.714H79.7952L84.2752 99.0984H90.1632L94.6752 110.714H90.5312ZM88.8032 105.93C88.3978 104.81 87.9818 103.69 87.5552 102.57L87.1712 101.53C86.7978 102.501 86.2485 103.968 85.5232 105.93H88.8032ZM102.412 110.874C100.001 110.874 98.2254 110.362 97.0841 109.338C95.9427 108.314 95.3721 106.853 95.3721 104.954C95.3721 103.045 95.9427 101.536 97.0841 100.426C98.2254 99.317 100.001 98.7624 102.412 98.7624C105.783 98.7624 108.039 99.9197 109.18 102.234C108.22 102.565 107.095 103.061 105.804 103.722C105.495 103.125 105.004 102.682 104.332 102.394C103.671 102.106 102.993 101.962 102.3 101.962C101.276 101.962 100.513 102.234 100.012 102.778C99.5107 103.312 99.2601 103.973 99.2601 104.762C99.2601 105.616 99.5267 106.314 100.06 106.858C100.604 107.392 101.431 107.658 102.54 107.658C103.425 107.658 104.129 107.514 104.652 107.226C105.175 106.928 105.559 106.458 105.804 105.818C106.679 106.288 107.799 106.816 109.164 107.402C108.631 108.693 107.74 109.594 106.492 110.106C105.244 110.618 103.884 110.874 102.412 110.874ZM124.85 102.458C123.175 102.405 121.548 102.373 119.97 102.362V110.714H115.97V102.362C114.38 102.373 112.759 102.405 111.106 102.458V99.0984H124.85V102.458Z" fill="black"/>
<path d="M67.8526 45.0274V44.3714H74.5726V45.0274H71.5806V53.3794H70.8606V45.0274H67.8526ZM77.1227 53.3794H76.3867V44.3714H77.1227V48.4034H82.6587V44.3714H83.3627V53.3794H82.6587V49.0114H77.1227V53.3794ZM86.6447 52.7554H91.9087V53.3794H85.9087V44.3714H91.7647V45.0274H86.6447V48.4994H90.7407V49.1394H86.6447V52.7554Z" fill="black"/>
<path d="M75.7124 92.55C74.3924 92.55 73.3874 92.155 72.6974 91.365C72.0074 90.565 71.6624 89.49 71.6624 88.14C71.6624 87.25 71.8124 86.48 72.1124 85.83C72.4124 85.17 72.8624 84.66 73.4624 84.3C74.0624 83.93 74.8124 83.745 75.7124 83.745C77.0424 83.745 78.0474 84.145 78.7274 84.945C79.4074 85.735 79.7474 86.8 79.7474 88.14C79.7474 89.01 79.5924 89.78 79.2824 90.45C78.9824 91.11 78.5324 91.625 77.9324 91.995C77.3324 92.365 76.5924 92.55 75.7124 92.55ZM75.7124 91.905C76.8224 91.905 77.6624 91.56 78.2324 90.87C78.8024 90.18 79.0874 89.27 79.0874 88.14C79.0874 87.01 78.8074 86.105 78.2474 85.425C77.6874 84.735 76.8424 84.39 75.7124 84.39C74.6024 84.39 73.7624 84.72 73.1924 85.38C72.6224 86.04 72.3374 86.96 72.3374 88.14C72.3374 89.26 72.6124 90.17 73.1624 90.87C73.7224 91.56 74.5724 91.905 75.7124 91.905ZM82.5462 92.34H81.8712V83.895H87.6162V84.51H82.5462V87.525H86.5962V88.125H82.5462V92.34Z" fill="black"/>
</svg>
