<svg width="500" height="422" viewBox="0 0 291 322" fill="none" xmlns="http://www.w3.org/2000/svg">
<g filter="url(#filter0_d_51_120)">
<rect x="1" y="15" width="283" height="298" rx="28" fill="white"/>
<rect x="6.5" y="20.5" width="272" height="287" rx="22.5" stroke="#C7CED2" stroke-width="11"/>
</g>
<path d="M85 3C85 1.34315 86.3431 0 88 0L192.707 0C195.387 0 196.722 3.2461 194.818 5.1317L183.649 16.1917C182.446 17.3825 182.466 19.3317 183.693 20.4977L194.557 30.8257C196.521 32.6925 195.199 36 192.49 36H88C86.3431 36 85 34.6569 85 33V3Z" fill="#4A4A4A"/>
<path d="M105.81 15.095C104.62 15.035 103.74 15 103.17 14.99V20.12C103.75 20.11 104.63 20.075 105.81 20.015V23H97.0954V20.015C98.2454 20.075 99.1204 20.11 99.7204 20.12V14.99C99.1204 15 98.2454 15.035 97.0954 15.095V12.11H105.81V15.095ZM122.747 12.125C122.677 13.815 122.642 15.625 122.642 17.555C122.642 19.495 122.677 21.31 122.747 23H117.377L113.747 14.81L114.017 23H110.162C110.242 21.06 110.282 19.245 110.282 17.555C110.282 15.875 110.242 14.065 110.162 12.125H115.682L119.327 20.54L119.072 12.125H122.747ZM138.797 14.915H130.637V16.49C131.147 16.5 131.912 16.505 132.932 16.505C134.692 16.505 136.482 16.475 138.302 16.415V19.355C136.482 19.285 134.562 19.25 132.542 19.25C131.702 19.25 131.067 19.255 130.637 19.265V23H127.097C127.177 21.06 127.217 19.245 127.217 17.555C127.217 15.865 127.177 14.05 127.097 12.11H138.797V14.915ZM149.827 23.15C147.537 23.15 145.852 22.655 144.772 21.665C143.692 20.665 143.152 19.265 143.152 17.465C143.152 15.685 143.687 14.295 144.757 13.295C145.837 12.295 147.527 11.795 149.827 11.795C152.137 11.795 153.827 12.295 154.897 13.295C155.977 14.295 156.517 15.685 156.517 17.465C156.517 19.275 155.982 20.675 154.912 21.665C153.842 22.655 152.147 23.15 149.827 23.15ZM149.827 20.09C150.937 20.09 151.737 19.88 152.227 19.46C152.717 19.03 152.962 18.365 152.962 17.465C152.962 16.585 152.717 15.93 152.227 15.5C151.737 15.07 150.937 14.855 149.827 14.855C148.727 14.855 147.932 15.07 147.442 15.5C146.952 15.93 146.707 16.585 146.707 17.465C146.707 18.355 146.952 19.015 147.442 19.445C147.932 19.875 148.727 20.09 149.827 20.09ZM172.907 15.74C172.907 16.61 172.692 17.345 172.262 17.945C171.842 18.545 171.117 18.98 170.087 19.25C170.207 19.41 170.292 19.535 170.342 19.625L172.772 23H168.692C168.252 22.18 167.557 21.02 166.607 19.52H164.402V23H160.862C160.942 21.06 160.982 19.245 160.982 17.555C160.982 15.865 160.942 14.05 160.862 12.11H164.402V12.125H167.477C169.497 12.125 170.907 12.45 171.707 13.1C172.507 13.75 172.907 14.63 172.907 15.74ZM164.402 15.005V16.715H166.427C167.277 16.715 167.917 16.69 168.347 16.64C168.787 16.58 169.092 16.49 169.262 16.37C169.432 16.25 169.517 16.075 169.517 15.845C169.517 15.625 169.437 15.455 169.277 15.335C169.117 15.215 168.817 15.13 168.377 15.08C167.937 15.03 167.287 15.005 166.427 15.005H164.402Z" fill="#EEEEEE"/>
<defs>
<filter id="filter0_d_51_120" x="0" y="15" width="291" height="307" filterUnits="userSpaceOnUse" color-interpolation-filters="sRGB">
<feFlood flood-opacity="0" result="BackgroundImageFix"/>
<feColorMatrix in="SourceAlpha" type="matrix" values="0 0 0 0 0 0 0 0 0 0 0 0 0 0 0 0 0 0 127 0" result="hardAlpha"/>
<feOffset dx="3" dy="5"/>
<feGaussianBlur stdDeviation="2"/>
<feComposite in2="hardAlpha" operator="out"/>
<feColorMatrix type="matrix" values="0 0 0 0 0 0 0 0 0 0 0 0 0 0 0 0 0 0 0.25 0"/>
<feBlend mode="normal" in2="BackgroundImageFix" result="effect1_dropShadow_51_120"/>
<feBlend mode="normal" in="SourceGraphic" in2="effect1_dropShadow_51_120" result="shape"/>
</filter>
</defs>
</svg>
