<svg width="180" height="180" viewBox="0 0 170 170" fill="none" xmlns="http://www.w3.org/2000/svg">
<path d="M78.856 5.80773L100.493 20.1591L126.316 17.4542L135.385 41.7826L157.866 54.7724L150.903 79.7853L161.455 103.508L141.12 119.651L135.713 145.046L109.773 146.153L90.4715 163.52L68.8345 149.168L43.0119 151.873L33.9428 127.545L11.4619 114.555L18.4247 89.5423L7.87254 65.8194L28.2077 49.6762L33.6148 24.2816L59.5551 23.1742L78.856 5.80773Z" fill="#44CB6A"/>
<circle cx="84.5" cy="88.5" r="54" stroke="#424242" stroke-dasharray="2 3"/>
<path d="M46.9989 91.45C48.7989 91.41 50.1289 91.37 50.9889 91.33V97H35.1189V91.33C37.2789 91.41 38.9089 91.45 40.0089 91.45V81.1C39.2889 82.68 37.8189 83.7 35.5989 84.16C35.5389 81.8 35.3189 79.65 34.9389 77.71C36.5389 77.49 37.6489 77.22 38.2689 76.9C38.9089 76.56 39.3989 76.19 39.7389 75.79C40.0989 75.39 40.3389 75.12 40.4589 74.98V74.92H46.9989V91.45ZM64.5514 97.3C60.2514 97.3 57.0814 96.31 55.0414 94.33C53.0014 92.35 51.9814 89.6 51.9814 86.08C51.9814 82.58 53.0014 79.85 55.0414 77.89C57.1014 75.91 60.2714 74.92 64.5514 74.92C68.8314 74.92 71.9914 75.91 74.0314 77.89C76.0714 79.85 77.0914 82.58 77.0914 86.08C77.0914 89.6 76.0714 92.35 74.0314 94.33C71.9914 96.31 68.8314 97.3 64.5514 97.3ZM64.5814 92.05C66.4214 92.05 67.7614 91.49 68.6014 90.37C69.4414 89.23 69.8614 87.8 69.8614 86.08C69.8614 84.38 69.4414 82.97 68.6014 81.85C67.7614 80.71 66.4214 80.14 64.5814 80.14C62.6814 80.14 61.3014 80.71 60.4414 81.85C59.6014 82.97 59.1814 84.38 59.1814 86.08C59.1814 87.78 59.6014 89.2 60.4414 90.34C61.3014 91.48 62.6814 92.05 64.5814 92.05ZM92.9612 97.3C88.6612 97.3 85.4912 96.31 83.4512 94.33C81.4112 92.35 80.3912 89.6 80.3912 86.08C80.3912 82.58 81.4112 79.85 83.4512 77.89C85.5112 75.91 88.6812 74.92 92.9612 74.92C97.2412 74.92 100.401 75.91 102.441 77.89C104.481 79.85 105.501 82.58 105.501 86.08C105.501 89.6 104.481 92.35 102.441 94.33C100.401 96.31 97.2412 97.3 92.9612 97.3ZM92.9912 92.05C94.8312 92.05 96.1712 91.49 97.0112 90.37C97.8512 89.23 98.2712 87.8 98.2712 86.08C98.2712 84.38 97.8512 82.97 97.0112 81.85C96.1712 80.71 94.8312 80.14 92.9912 80.14C91.0912 80.14 89.7112 80.71 88.8512 81.85C88.0112 82.97 87.5912 84.38 87.5912 86.08C87.5912 87.78 88.0112 89.2 88.8512 90.34C89.7112 91.48 91.0912 92.05 92.9912 92.05ZM127.701 86.26C129.021 86.26 130.151 86.5 131.091 86.98C132.031 87.44 132.741 88.08 133.221 88.9C133.721 89.72 133.971 90.63 133.971 91.63C133.971 92.65 133.721 93.57 133.221 94.39C132.741 95.21 132.031 95.86 131.091 96.34C130.151 96.8 129.021 97.03 127.701 97.03C126.361 97.03 125.211 96.8 124.251 96.34C123.311 95.86 122.591 95.21 122.091 94.39C121.611 93.57 121.371 92.65 121.371 91.63C121.371 91.03 121.461 90.46 121.641 89.92L116.331 97.03H109.401L118.731 84.55C117.611 85.51 116.111 85.99 114.231 85.99C112.891 85.99 111.741 85.76 110.781 85.3C109.841 84.82 109.121 84.17 108.621 83.35C108.141 82.53 107.901 81.61 107.901 80.59C107.901 79.59 108.141 78.68 108.621 77.86C109.121 77.04 109.841 76.4 110.781 75.94C111.741 75.46 112.891 75.22 114.231 75.22C115.551 75.22 116.681 75.46 117.621 75.94C118.561 76.4 119.271 77.04 119.751 77.86C120.251 78.68 120.501 79.59 120.501 80.59C120.501 81.39 120.351 82.12 120.051 82.78L125.541 75.46H132.441L123.531 87.4C124.611 86.64 126.001 86.26 127.701 86.26ZM114.231 82.21C114.651 82.21 115.031 82.04 115.371 81.7C115.731 81.36 115.911 80.98 115.911 80.56C115.911 80.14 115.731 79.78 115.371 79.48C115.031 79.18 114.651 79.03 114.231 79.03C113.771 79.03 113.361 79.18 113.001 79.48C112.661 79.78 112.491 80.14 112.491 80.56C112.491 81 112.661 81.39 113.001 81.73C113.361 82.05 113.771 82.21 114.231 82.21ZM127.701 93.25C128.121 93.25 128.501 93.08 128.841 92.74C129.201 92.4 129.381 92.02 129.381 91.6C129.381 91.18 129.201 90.82 128.841 90.52C128.501 90.22 128.121 90.07 127.701 90.07C127.241 90.07 126.831 90.22 126.471 90.52C126.131 90.82 125.961 91.18 125.961 91.6C125.961 92.04 126.131 92.43 126.471 92.77C126.831 93.09 127.241 93.25 127.701 93.25Z" fill="black"/>
</svg>
