<svg width="800" height="300" viewBox="0 0 689 281" fill="none" xmlns="http://www.w3.org/2000/svg">
<g filter="url(#filter0_d_7_10)">
<path d="M109.423 4.45C130.384 4.45 144.973 8.18933 153.189 15.668C161.405 23.0413 165.513 33.4693 165.513 46.952C165.513 56.2213 163.88 64.1213 160.615 70.652C157.35 77.0773 151.609 82.1333 143.393 85.82C135.177 89.4013 123.854 91.192 109.423 91.192H76.5589V119H37.6909C38.5335 98.5653 38.9549 79.4473 38.9549 61.646C38.9549 43.8447 38.5335 24.7267 37.6909 4.292H76.5589V4.45H109.423ZM98.3629 60.698C107.106 60.698 113.636 60.382 117.955 59.75C122.379 59.0127 125.434 57.7487 127.119 55.958C128.91 54.1673 129.805 51.534 129.805 48.058C129.805 44.582 128.962 42.0013 127.277 40.316C125.697 38.5253 122.695 37.314 118.271 36.682C113.952 36.05 107.316 35.734 98.3629 35.734H76.5589V60.698H98.3629ZM253.151 120.58C229.03 120.58 211.281 115.366 199.905 104.938C188.529 94.4047 182.841 79.658 182.841 60.698C182.841 41.9487 188.476 27.3073 199.747 16.774C211.123 6.24066 228.924 0.973994 253.151 0.973994C277.483 0.973994 295.284 6.24066 306.555 16.774C317.931 27.3073 323.619 41.9487 323.619 60.698C323.619 79.7633 317.984 94.51 306.713 104.938C295.442 115.366 277.588 120.58 253.151 120.58ZM253.151 88.348C264.843 88.348 273.27 86.136 278.431 81.712C283.592 77.1827 286.173 70.178 286.173 60.698C286.173 51.4287 283.592 44.5293 278.431 40C273.27 35.4707 264.843 33.206 253.151 33.206C241.564 33.206 233.19 35.4707 228.029 40C222.868 44.5293 220.287 51.4287 220.287 60.698C220.287 70.0727 222.868 77.0247 228.029 81.554C233.19 86.0833 241.564 88.348 253.151 88.348ZM467.826 42.528C467.826 51.692 465.561 59.434 461.032 65.754C456.608 72.074 448.971 76.656 438.122 79.5C439.386 81.1853 440.281 82.502 440.808 83.45L466.404 119H423.428C418.793 110.363 411.473 98.144 401.466 82.344H378.24V119H340.952C341.795 98.5653 342.216 79.4473 342.216 61.646C342.216 43.8447 341.795 24.7267 340.952 4.292H378.24V4.45H410.63C431.907 4.45 446.759 7.87333 455.186 14.72C463.613 21.5667 467.826 30.836 467.826 42.528ZM378.24 34.786V52.798H399.57C408.523 52.798 415.265 52.5347 419.794 52.008C424.429 51.376 427.641 50.428 429.432 49.164C431.223 47.9 432.118 46.0567 432.118 43.634C432.118 41.3167 431.275 39.526 429.59 38.262C427.905 36.998 424.745 36.1027 420.11 35.576C415.475 35.0493 408.629 34.786 399.57 34.786H378.24ZM613.029 37.472C596.492 36.9453 580.429 36.6293 564.839 36.524V119H525.339V36.524C509.645 36.6293 493.634 36.9453 477.307 37.472V4.292H613.029V37.472ZM124.56 180.838H38.608V197.428C43.98 197.533 52.038 197.586 62.782 197.586C81.3207 197.586 100.175 197.27 119.346 196.638V227.606C100.175 226.869 79.9513 226.5 58.674 226.5C49.826 226.5 43.1373 226.553 38.608 226.658V266H1.32C2.16267 245.565 2.584 226.447 2.584 208.646C2.584 190.845 2.16267 171.727 1.32 151.292H124.56V180.838ZM212.306 267.58C188.184 267.58 170.436 262.366 159.06 251.938C147.684 241.405 141.996 226.658 141.996 207.698C141.996 188.949 147.631 174.307 158.902 163.774C170.278 153.241 188.079 147.974 212.306 147.974C236.638 147.974 254.439 153.241 265.71 163.774C277.086 174.307 282.774 188.949 282.774 207.698C282.774 226.763 277.138 241.51 265.868 251.938C254.597 262.366 236.743 267.58 212.306 267.58ZM212.306 235.348C223.998 235.348 232.424 233.136 237.586 228.712C242.747 224.183 245.328 217.178 245.328 207.698C245.328 198.429 242.747 191.529 237.586 187C232.424 182.471 223.998 180.206 212.306 180.206C200.719 180.206 192.345 182.471 187.184 187C182.022 191.529 179.442 198.429 179.442 207.698C179.442 217.073 182.022 224.025 187.184 228.554C192.345 233.083 200.719 235.348 212.306 235.348ZM338.659 234.084C369.205 233.873 394.485 233.347 414.499 232.504C413.129 237.876 412.287 243.037 411.971 247.988C411.655 252.939 411.497 258.943 411.497 266H300.107C300.949 245.565 301.371 226.447 301.371 208.646C301.371 190.845 300.949 171.727 300.107 151.292H338.659V234.084ZM523.631 182.734C511.096 182.102 501.827 181.733 495.823 181.628V235.664C501.932 235.559 511.202 235.19 523.631 234.558V266H431.833V234.558C443.946 235.19 453.163 235.559 459.483 235.664V181.628C453.163 181.733 443.946 182.102 431.833 182.734V151.292H523.631V182.734ZM611.342 267.58C587.221 267.58 569.472 262.366 558.096 251.938C546.72 241.405 541.032 226.658 541.032 207.698C541.032 188.949 546.667 174.307 557.938 163.774C569.314 153.241 587.115 147.974 611.342 147.974C635.674 147.974 653.475 153.241 664.746 163.774C676.122 174.307 681.81 188.949 681.81 207.698C681.81 226.763 676.175 241.51 664.904 251.938C653.633 262.366 635.779 267.58 611.342 267.58ZM611.342 235.348C623.034 235.348 631.461 233.136 636.622 228.712C641.783 224.183 644.364 217.178 644.364 207.698C644.364 198.429 641.783 191.529 636.622 187C631.461 182.471 623.034 180.206 611.342 180.206C599.755 180.206 591.381 182.471 586.22 187C581.059 191.529 578.478 198.429 578.478 207.698C578.478 217.073 581.059 224.025 586.22 228.554C591.381 233.083 599.755 235.348 611.342 235.348Z" fill="white"/>
</g>
<defs>
<filter id="filter0_d_7_10" x="0.320007" y="0.973999" width="688.49" height="279.606" filterUnits="userSpaceOnUse" color-interpolation-filters="sRGB">
<feFlood flood-opacity="0" result="BackgroundImageFix"/>
<feColorMatrix in="SourceAlpha" type="matrix" values="0 0 0 0 0 0 0 0 0 0 0 0 0 0 0 0 0 0 127 0" result="hardAlpha"/>
<feOffset dx="3" dy="9"/>
<feGaussianBlur stdDeviation="2"/>
<feComposite in2="hardAlpha" operator="out"/>
<feColorMatrix type="matrix" values="0 0 0 0 0 0 0 0 0 0 0 0 0 0 0 0 0 0 1 0"/>
<feBlend mode="normal" in2="BackgroundImageFix" result="effect1_dropShadow_7_10"/>
<feBlend mode="normal" in="SourceGraphic" in2="effect1_dropShadow_7_10" result="shape"/>
</filter>
</defs>
</svg>
