<svg width="190" height="78" viewBox="0 0 180 68" fill="none" xmlns="http://www.w3.org/2000/svg">
<rect x="10" width="160" height="68" rx="34" fill="#F6DB29"/>
<path d="M34.8773 27.225C37.398 27.225 39.1523 27.6747 40.1403 28.574C41.1283 29.4607 41.6223 30.7147 41.6223 32.336C41.6223 33.4507 41.426 34.4007 41.0333 35.186C40.6406 35.9587 39.9503 36.5667 38.9623 37.01C37.9743 37.4407 36.6126 37.656 34.8773 37.656H30.9253V41H26.2513C26.3526 38.5427 26.4033 36.2437 26.4033 34.103C26.4033 31.9623 26.3526 29.6633 26.2513 27.206H30.9253V27.225H34.8773ZM33.5473 33.989C34.5986 33.989 35.384 33.951 35.9033 33.875C36.4353 33.7863 36.8026 33.6343 37.0053 33.419C37.2206 33.2037 37.3283 32.887 37.3283 32.469C37.3283 32.051 37.227 31.7407 37.0243 31.538C36.8343 31.3227 36.4733 31.177 35.9413 31.101C35.422 31.025 34.624 30.987 33.5473 30.987H30.9253V33.989H33.5473ZM54.7641 27.187H59.4761V34.749C59.4507 36.611 58.8111 38.15 57.5571 39.366C56.3157 40.582 54.2194 41.19 51.2681 41.19C48.2787 41.19 46.2331 40.6137 45.1311 39.461C44.0291 38.2957 43.4907 36.7693 43.5161 34.882V27.187H48.2281V34.578C48.2281 35.1353 48.2661 35.5913 48.3421 35.946C48.4307 36.288 48.6967 36.611 49.1401 36.915C49.5961 37.219 50.3244 37.371 51.3251 37.371C52.4144 37.371 53.2124 37.219 53.7191 36.915C54.2257 36.5983 54.5234 36.25 54.6121 35.87C54.7134 35.49 54.7641 35.0023 54.7641 34.407V27.187ZM76.6316 31.804C76.6316 32.906 76.3592 33.837 75.8146 34.597C75.2826 35.357 74.3642 35.908 73.0596 36.25C73.2116 36.4527 73.3192 36.611 73.3826 36.725L76.4606 41H71.2926C70.7352 39.9613 69.8549 38.492 68.6516 36.592H65.8586V41H61.3746C61.4759 38.5427 61.5266 36.2437 61.5266 34.103C61.5266 31.9623 61.4759 29.6633 61.3746 27.206H65.8586V27.225H69.7536C72.3122 27.225 74.0982 27.6367 75.1116 28.46C76.1249 29.2833 76.6316 30.398 76.6316 31.804ZM65.8586 30.873V33.039H68.4236C69.5002 33.039 70.3109 33.0073 70.8556 32.944C71.4129 32.868 71.7992 32.754 72.0146 32.602C72.2299 32.45 72.3376 32.2283 72.3376 31.937C72.3376 31.6583 72.2362 31.443 72.0336 31.291C71.8309 31.139 71.4509 31.0313 70.8936 30.968C70.3362 30.9047 69.5129 30.873 68.4236 30.873H65.8586ZM87.154 27.225C89.6747 27.225 91.429 27.6747 92.417 28.574C93.405 29.4607 93.899 30.7147 93.899 32.336C93.899 33.4507 93.7027 34.4007 93.31 35.186C92.9173 35.9587 92.227 36.5667 91.239 37.01C90.251 37.4407 88.8893 37.656 87.154 37.656H83.202V41H78.528C78.6293 38.5427 78.68 36.2437 78.68 34.103C78.68 31.9623 78.6293 29.6633 78.528 27.206H83.202V27.225H87.154ZM85.824 33.989C86.8753 33.989 87.6607 33.951 88.18 33.875C88.712 33.7863 89.0793 33.6343 89.282 33.419C89.4973 33.2037 89.605 32.887 89.605 32.469C89.605 32.051 89.5037 31.7407 89.301 31.538C89.111 31.3227 88.75 31.177 88.218 31.101C87.6987 31.025 86.9007 30.987 85.824 30.987H83.202V33.989H85.824ZM104.248 41.19C101.347 41.19 99.2128 40.563 97.8448 39.309C96.4768 38.0423 95.7928 36.269 95.7928 33.989C95.7928 31.7343 96.4704 29.9737 97.8258 28.707C99.1938 27.4403 101.334 26.807 104.248 26.807C107.174 26.807 109.314 27.4403 110.67 28.707C112.038 29.9737 112.722 31.7343 112.722 33.989C112.722 36.2817 112.044 38.055 110.689 39.309C109.333 40.563 107.186 41.19 104.248 41.19ZM104.248 37.314C105.654 37.314 106.667 37.048 107.288 36.516C107.908 35.9713 108.219 35.129 108.219 33.989C108.219 32.8743 107.908 32.0447 107.288 31.5C106.667 30.9553 105.654 30.683 104.248 30.683C102.854 30.683 101.847 30.9553 101.227 31.5C100.606 32.0447 100.296 32.8743 100.296 33.989C100.296 35.1163 100.606 35.9523 101.227 36.497C101.847 37.0417 102.854 37.314 104.248 37.314ZM114.616 39.366C115.047 38.72 115.401 38.1183 115.68 37.561C115.971 37.0037 116.25 36.3577 116.516 35.623C117.415 36.1423 118.46 36.5477 119.651 36.839C120.842 37.1303 121.95 37.276 122.976 37.276C124.027 37.276 124.768 37.1873 125.199 37.01C125.63 36.82 125.845 36.6173 125.845 36.402C125.845 35.6293 124.667 35.243 122.311 35.243C119.727 35.243 117.852 34.977 116.687 34.445C115.522 33.9003 114.939 33.0263 114.939 31.823C114.939 30.113 115.648 28.8527 117.067 28.042C118.486 27.2313 120.329 26.826 122.596 26.826C123.913 26.826 125.262 26.997 126.643 27.339C128.036 27.6683 129.29 28.1243 130.405 28.707C130.038 29.543 129.651 30.5627 129.246 31.766C129.17 32.0193 129.107 32.2093 129.056 32.336C128.41 31.8167 127.435 31.386 126.13 31.044C124.825 30.6893 123.673 30.512 122.672 30.512C121.469 30.512 120.658 30.5943 120.24 30.759C119.822 30.911 119.613 31.139 119.613 31.443C119.613 31.747 119.898 31.994 120.468 32.184C121.051 32.3613 121.887 32.45 122.976 32.45C125.661 32.45 127.612 32.7603 128.828 33.381C130.044 33.989 130.652 34.9263 130.652 36.193C130.652 37.9663 130.006 39.2457 128.714 40.031C127.422 40.8037 125.465 41.19 122.843 41.19C121.437 41.19 120.006 41.038 118.549 40.734C117.092 40.4173 115.781 39.9613 114.616 39.366ZM137.033 37.523C141.846 37.4977 145.336 37.428 147.502 37.314C147.413 37.8333 147.356 38.3717 147.331 38.929C147.318 39.4737 147.312 40.164 147.312 41H132.549C132.65 38.5427 132.701 36.2437 132.701 34.103C132.701 31.9623 132.65 29.6633 132.549 27.206H147.312V30.645H137.033V32.469C137.641 32.4817 138.54 32.488 139.731 32.488C141.745 32.488 143.829 32.45 145.982 32.374V35.642C143.829 35.566 141.745 35.528 139.731 35.528C138.54 35.528 137.641 35.5343 137.033 35.547V37.523ZM153.946 26.18C153.946 27.0287 153.915 28.6563 153.851 31.063C153.826 31.443 153.813 31.7217 153.813 31.899C153.56 33.685 153.402 35.243 153.338 36.573H149.823C149.76 35.243 149.602 33.685 149.348 31.899L149.329 31.063C149.253 29.1123 149.215 27.4847 149.215 26.18H153.946ZM153.775 41.38H149.367V37.998H153.775V41.38Z" fill="black"/>
</svg>
