<svg width="89" height="50" viewBox="0 0 89 50" fill="none" xmlns="http://www.w3.org/2000/svg">
<circle cx="45" cy="25" r="25" fill="#D9D9D9"/>
<path d="M51.8828 15.3086C53.4063 15.6016 54.6953 16.4219 55.6328 17.7695C56.5117 19 57.0977 20.5234 57.3906 22.3398C57.6836 24.0391 57.6836 25.7383 57.332 27.3789C56.8633 30.1914 55.9258 32.4766 54.5195 34.3516C52.8789 36.6367 50.7695 37.75 48.1914 37.75C47.6055 37.75 46.9023 37.5742 46.1406 37.1641C45.6719 36.8711 45.0859 36.6953 44.4414 36.6953C43.8555 36.6953 43.2695 36.8711 42.8008 37.1641C42.0391 37.5742 41.3359 37.75 40.75 37.75C38.1719 37.75 36.0625 36.6367 34.4219 34.3516C33.0156 32.4766 32.0781 30.1914 31.6094 27.3789C31.2578 25.7383 31.2578 24.0391 31.5508 22.3398C31.8438 20.5234 32.4297 19 33.3086 17.7695C34.2461 16.4219 35.5352 15.6016 37.0586 15.3086C37.9961 15.1914 39.2852 15.3086 40.9258 15.7187C42.332 16.1289 43.5039 16.5977 44.4414 17.125C45.4375 16.5977 46.6094 16.1289 48.0156 15.7187C49.6563 15.3086 50.9453 15.1914 51.8828 15.3086ZM48.6602 12.9062C48.1328 13.4336 47.4297 13.7852 46.4922 14.0195C45.9063 14.2539 45.2031 14.3125 44.4414 14.3125L43.6211 14.2539C43.5039 13.7266 43.5039 13.082 43.6211 12.3789C43.7383 10.9727 44.207 9.91797 44.9102 9.15625C45.4961 8.6875 46.1992 8.27734 47.0781 8.04297C47.7227 7.86719 48.4258 7.75 49.1289 7.75L50.0078 7.80859L50.0664 8.6875C50.0664 9.44922 50.0078 10.1523 49.7734 10.7383C49.5391 11.6758 49.1875 12.3789 48.6602 12.9062Z" fill="black"/>
</svg>
