<svg width="186" height="171" viewBox="0 0 176 161" fill="none" xmlns="http://www.w3.org/2000/svg">
<rect width="124.814" height="63.9388" rx="31.9694" transform="matrix(0.681896 0.731449 -0.730331 0.683094 71.7166 14.8606)" fill="#5953F7"/>
<path d="M97.126 63.4888L96.8937 63.7089L95.7823 62.5358L96.0146 62.3157L96.4493 62.7745L99.2484 60.1224L98.8138 59.6636L99.0519 59.4381L100.163 60.6112L99.9252 60.8367L99.496 60.3838L96.6969 63.0358L97.126 63.4888ZM101.182 68.2348L104.451 65.1371L104.699 65.3984L101.662 68.276L103.477 70.1925L103.245 70.4126L101.182 68.2348ZM106.123 72.9848L105.891 73.2049L104.779 72.0318L105.012 71.8117L105.446 72.2705L108.245 69.6184L107.811 69.1596L108.049 68.934L109.16 70.1071L108.922 70.3327L108.493 69.8798L105.694 72.5318L106.123 72.9848ZM107.746 75.1747L111.021 72.0714L111.274 72.3386L109.492 74.0278L113.035 74.1969L113.36 74.5396L113.302 74.5946L110.584 74.4251L110.214 77.652L110.156 77.707L109.859 77.3934L110.223 74.404L109.166 74.3359L107.999 75.4418L107.746 75.1747ZM112.221 79.4323L114.031 81.343L113.804 81.5575L111.741 79.3798L115.011 76.282L117.024 78.4075L116.786 78.6331L115.026 76.7748L113.765 77.9687L115.174 79.4554L114.942 79.6755L113.533 78.1888L112.221 79.4323ZM53.3215 49.896C51.9744 48.4742 51.2839 47.1406 51.25 45.8952C51.2162 44.6498 51.7592 43.4966 52.8791 42.4355C54.0052 41.3686 55.2144 40.8617 56.5065 40.915C57.7986 40.9682 59.1182 41.7058 60.4653 43.1276C62.3489 45.1157 62.927 47.0931 62.1995 49.0597C61.468 48.6783 60.5466 48.2917 59.4353 47.9C59.6148 47.3838 59.6017 46.847 59.396 46.2897C59.1963 45.7387 58.9027 45.2587 58.5153 44.8498C57.9431 44.2458 57.3564 43.948 56.7554 43.9563C56.1607 43.9586 55.6306 44.1804 55.165 44.6214C54.6617 45.0983 54.3986 45.646 54.3758 46.2646C54.3653 46.8835 54.6699 47.5201 55.2898 48.1744C55.7846 48.6966 56.2629 49.0313 56.7249 49.1786C57.1931 49.32 57.6845 49.2842 58.1991 49.0713C58.411 49.8495 58.7255 50.8051 59.1424 51.9382C58.0832 52.3449 57.0538 52.3233 56.0544 51.8733C55.055 51.4233 54.1441 50.7642 53.3215 49.896ZM72.5285 56.2569C71.4236 57.2202 70.2608 58.2801 69.0403 59.4365C67.8198 60.5929 66.6988 61.6967 65.6773 62.7481L63.5761 60.5305L66.143 58.0985L62.8527 54.6257L60.2858 57.0576L58.1847 54.8399C59.4529 53.7339 60.6186 52.6772 61.6818 51.6698C62.745 50.6625 63.8631 49.5554 65.0359 48.3487L67.1371 50.5664L64.5702 52.9984L67.8605 56.4712L70.4274 54.0392L72.5285 56.2569ZM72.3023 69.7407C72.5477 69.2814 72.8455 68.6948 73.1958 67.9808L70.3436 64.9704L68.5471 65.7771L66.3029 63.4084L75.6576 59.5596L78.948 63.0324L74.6181 72.1849L72.3023 69.7407ZM74.1584 66.0481C74.5925 65.1832 75.0206 64.3119 75.4427 63.4344L75.8416 62.6267C75.0604 62.949 73.8884 63.4446 72.3254 64.1135L74.1584 66.0481ZM79.2767 73.2837C81.0179 75.0963 82.4799 76.5764 83.6628 77.7241C83.2644 77.9463 82.9084 78.188 82.5949 78.4493C82.2813 78.7106 81.9137 79.0409 81.4922 79.4403L75.1888 72.7872C76.457 71.6812 77.6227 70.6245 78.6859 69.6171C79.7492 68.6097 80.8672 67.5027 82.04 66.296L84.2217 68.5986L79.2767 73.2837ZM86.5563 80.9672C88.2975 82.7797 89.7595 84.2598 90.9424 85.4075C90.5441 85.6297 90.1881 85.8715 89.8745 86.1327C89.5609 86.394 89.1934 86.7243 88.7719 87.1237L82.4684 80.4706C83.7366 79.3646 84.9023 78.3079 85.9656 77.3005C87.0288 76.2931 88.1468 75.1861 89.3197 73.9794L91.5013 76.282L86.5563 80.9672ZM93.7598 88.9293C96.0374 91.3081 97.7142 93.0085 98.7901 94.0307C98.4904 94.2311 98.1962 94.4561 97.9075 94.7058C97.631 94.9558 97.2851 95.2775 96.8699 95.6709L89.9227 88.3384C91.1909 87.2323 92.3566 86.1756 93.4199 85.1682C94.4831 84.1609 95.6011 83.0538 96.774 81.8471L103.721 89.1797L102.013 90.798L97.176 85.6926L96.27 86.551C96.5498 86.8589 96.9699 87.3086 97.5302 87.8999C98.478 88.9003 99.4774 89.9173 100.528 90.9511L98.9053 92.4889C97.9297 91.3837 96.968 90.3308 96.0203 89.3305C95.46 88.7391 95.0336 88.2954 94.7412 87.9994L93.7598 88.9293ZM112.288 98.2405C111.183 99.2038 110.023 100.261 108.809 101.411C107.589 102.567 106.468 103.671 105.446 104.723L102.245 101.344L105.234 94.1787L100.242 99.2304L97.9445 96.8051C99.2127 95.6991 100.378 94.6424 101.442 93.635C102.499 92.6336 103.614 91.5295 104.786 90.3228L108.077 93.7957L104.955 101.105L110.097 95.9284L112.288 98.2405ZM114.02 105.947L117.838 109.976L113.931 113.678L112.357 112.017L113.84 110.236C113.063 110.614 112.301 110.697 111.552 110.487C110.804 110.277 110.099 109.823 109.437 109.124C108.835 108.489 108.44 107.789 108.253 107.023C108.071 106.264 108.11 105.493 108.37 104.709C108.636 103.932 109.122 103.209 109.826 102.542C110.953 101.475 112.162 100.968 113.454 101.021C114.746 101.074 116.066 101.812 117.413 103.234C118.182 104.045 118.726 104.884 119.046 105.751C119.372 106.625 119.464 107.54 119.321 108.499C118.908 108.353 118.094 108.074 116.879 107.661L116.524 107.55C116.537 107.072 116.448 106.613 116.257 106.173C116.073 105.726 115.808 105.321 115.463 104.956C114.89 104.352 114.304 104.054 113.703 104.062C113.108 104.065 112.578 104.286 112.112 104.727C111.609 105.204 111.352 105.746 111.342 106.353C111.338 106.966 111.646 107.599 112.265 108.254C112.534 108.537 112.834 108.772 113.166 108.958C113.504 109.151 113.86 109.244 114.234 109.235L112.491 107.395L114.02 105.947ZM118.751 115.306C121.028 117.685 122.705 119.386 123.781 120.408C123.481 120.608 123.187 120.833 122.899 121.083C122.622 121.333 122.276 121.655 121.861 122.048L114.914 114.716C116.182 113.609 117.348 112.553 118.411 111.545C119.474 110.538 120.592 109.431 121.765 108.224L128.712 115.557L127.004 117.175L122.167 112.07L121.261 112.928C121.541 113.236 121.961 113.686 122.521 114.277C123.469 115.277 124.468 116.294 125.519 117.328L123.896 118.866C122.921 117.761 121.959 116.708 121.011 115.708C120.451 115.116 120.025 114.673 119.732 114.377L118.751 115.306ZM132.433 118.464C132.012 118.863 131.188 119.613 129.963 120.714C129.763 120.881 129.618 121.005 129.53 121.089C128.524 121.804 127.676 122.458 126.985 123.052L125.331 121.307C125.962 120.649 126.661 119.838 127.429 118.871L127.835 118.468C128.768 117.513 129.559 116.728 130.207 116.114L132.433 118.464ZM124.803 125.532L122.729 123.342L124.409 121.751L126.483 123.94L124.803 125.532ZM67.7412 86.7738C67.3652 87.13 67.0047 87.3365 66.6599 87.3933C66.3216 87.4501 65.9915 87.3901 65.6695 87.213C65.3475 87.036 65.026 86.7781 64.705 86.4393L64.0021 85.6974L66.863 82.9869L67.5659 83.7288C67.8868 84.0676 68.1135 84.4153 68.2458 84.7721C68.3815 85.1257 68.4101 85.4714 68.3317 85.8093C68.2565 86.1506 68.0596 86.4721 67.7412 86.7738ZM64.4268 85.7386L64.9468 86.2874C65.2132 86.5686 65.4781 86.7837 65.7414 86.9327C66.008 87.0852 66.2839 87.1355 66.5692 87.0838C66.8577 87.0355 67.1713 86.8508 67.5101 86.5299C67.7879 86.2667 67.9604 85.9907 68.0276 85.7021C68.1014 85.4136 68.0795 85.1225 67.962 84.8288C67.8511 84.5353 67.6624 84.248 67.396 83.9668L66.8761 83.418L64.4268 85.7386ZM68.8215 90.9267C68.3979 90.4795 68.2091 90.0123 68.2553 89.525C68.3048 89.0345 68.5583 88.5725 69.0156 88.1392C69.3171 87.8536 69.6261 87.6573 69.9426 87.5503C70.2625 87.4401 70.5797 87.4288 70.8942 87.5165C71.2121 87.601 71.5155 87.7957 71.8044 88.1006C72.2312 88.5512 72.4183 89.02 72.3656 89.5071C72.3162 89.9911 72.0645 90.4481 71.6106 90.8782C71.3159 91.1574 71.0053 91.352 70.6788 91.4621C70.3589 91.5723 70.04 91.5851 69.7221 91.5006C69.4042 91.4161 69.104 91.2248 68.8215 90.9267ZM69.0401 90.7197C69.3963 91.0957 69.7828 91.2695 70.1995 91.2412C70.6162 91.2128 71.0159 91.0173 71.3987 90.6546C71.7815 90.2919 71.9983 89.9066 72.0489 89.4986C72.1029 89.0874 71.9486 88.6904 71.5859 88.3076C71.2296 87.9316 70.8482 87.753 70.4417 87.7717C70.0351 87.7904 69.632 87.9892 69.2323 88.3679C68.8528 88.7274 68.6328 89.1126 68.5722 89.5236C68.5182 89.9348 68.6742 90.3335 69.0401 90.7197ZM74.3603 96.6302L75.4224 95.624L76.3016 92.9491L76.5424 93.2032L75.7663 95.5392L78.1263 94.875L78.367 95.1291L75.6438 95.8577L74.5818 96.8639L74.3603 96.6302ZM77.8176 100.422C77.3939 99.9745 77.2051 99.5073 77.2513 99.02C77.3009 98.5294 77.5543 98.0675 78.0116 97.6342C78.3131 97.3486 78.6221 97.1523 78.9386 97.0453C79.2585 96.9351 79.5757 96.9238 79.8902 97.0115C80.2081 97.096 80.5115 97.2907 80.8004 97.5956C81.2273 98.0462 81.4143 98.515 81.3616 99.0021C81.3122 99.4861 81.0605 99.9431 80.6066 100.373C80.3119 100.652 80.0013 100.847 79.6748 100.957C79.3549 101.067 79.036 101.08 78.7181 100.996C78.4002 100.911 78.1 100.72 77.8176 100.422ZM78.0361 100.215C78.3923 100.591 78.7788 100.765 79.1955 100.736C79.6122 100.708 80.012 100.512 80.3948 100.15C80.7776 99.7869 80.9943 99.4016 81.0449 98.9936C81.0989 98.5824 80.9446 98.1854 80.5819 97.8026C80.2256 97.4266 79.8442 97.248 79.4377 97.2667C79.0312 97.2854 78.628 97.4842 78.2283 97.8629C77.8489 98.2224 77.6288 98.6076 77.5682 99.0186C77.5142 99.4298 77.6702 99.8285 78.0361 100.215ZM81.6187 104.434C81.2657 104.061 81.1047 103.667 81.1357 103.252C81.1733 102.837 81.397 102.436 81.8069 102.047L83.4483 100.492L83.6697 100.726L82.0284 102.281C81.6693 102.621 81.4786 102.959 81.4564 103.295C81.4407 103.632 81.5676 103.942 81.8373 104.227C82.1229 104.528 82.4292 104.675 82.7563 104.667C83.0865 104.663 83.4328 104.489 83.7953 104.146L85.4366 102.591L85.6533 102.819L84.0119 104.374C83.5953 104.769 83.1804 104.973 82.7675 104.985C82.3611 104.997 81.9782 104.813 81.6187 104.434ZM85.7845 107.385L85.5967 107.187C85.739 107.052 85.8865 106.967 86.0393 106.932C86.1921 106.896 86.3443 106.884 86.4959 106.894C86.6508 106.902 86.8024 106.913 86.9506 106.926C87.1053 106.941 87.2524 106.933 87.3919 106.904C87.5345 106.878 87.6668 106.807 87.7888 106.692C87.9783 106.518 88.0696 106.316 88.0626 106.085C88.0556 105.854 87.9591 105.64 87.7729 105.443C87.6221 105.284 87.4629 105.187 87.2955 105.153C87.1315 105.116 86.9694 105.128 86.8093 105.19C86.6525 105.248 86.5081 105.34 86.376 105.465L86.1642 105.242C86.3339 105.068 86.5204 104.946 86.7237 104.875C86.9335 104.805 87.145 104.798 87.3581 104.853C87.5778 104.908 87.7839 105.038 87.9765 105.241C88.1305 105.404 88.2396 105.583 88.3036 105.78C88.3676 105.976 88.3771 106.173 88.3322 106.37C88.2907 106.563 88.1852 106.74 88.0158 106.901C87.8702 107.039 87.7209 107.126 87.5681 107.161C87.4153 107.197 87.2615 107.207 87.1068 107.193C86.9586 107.179 86.8088 107.164 86.6574 107.146C86.5094 107.126 86.3608 107.128 86.2116 107.154C86.0656 107.183 85.9232 107.26 85.7845 107.385ZM85.0017 107.953C84.9439 107.892 84.9223 107.836 84.9369 107.783C84.9547 107.734 84.9891 107.686 85.0399 107.637C85.0839 107.596 85.1292 107.569 85.1757 107.557C85.2289 107.545 85.2843 107.57 85.3421 107.631C85.3967 107.688 85.4166 107.743 85.402 107.796C85.3908 107.845 85.3632 107.89 85.3191 107.932C85.2683 107.98 85.2163 108.01 85.1632 108.022C85.1101 108.034 85.0562 108.011 85.0017 107.953Z" fill="white"/>
<circle cx="66.4983" cy="38.4954" r="3.39819" transform="rotate(34.4256 66.4983 38.4954)" fill="#181818"/>
<path d="M58.677 20.8366C61.8573 23.6621 64.0907 26.9096 65.1454 29.8557C66.2073 32.8218 66.0403 35.3582 64.648 36.9254C63.2557 38.4926 60.7565 38.9571 57.6861 38.2519C54.6363 37.5514 51.1483 35.716 47.968 32.8905C44.7877 30.0651 42.5543 26.8175 41.4996 23.8714C40.4377 20.9054 40.6047 18.3689 41.997 16.8017C43.3894 15.2345 45.8885 14.77 48.959 15.4752C52.0088 16.1757 55.4967 18.0112 58.677 20.8366Z" stroke="white"/>
<rect x="63.6593" y="28.8992" width="5.54481" height="5.47655" transform="rotate(7.8941 63.6593 28.8992)" fill="#5953F7"/>
</svg>
