<svg width="207" height="170" viewBox="0 0 197 160" fill="none" xmlns="http://www.w3.org/2000/svg">
<rect x="44.5087" width="160.25" height="107.138" rx="28" transform="rotate(18.2259 44.5087 0)" fill="#F97923"/>
<path d="M58.134 27.1947L59.5281 42.5804L69.8505 31.1105L71.3417 31.6089L66.1443 47.1599L64.4827 46.6045L68.3416 35.0585L59.4126 44.91L58.1771 44.4971L56.8948 31.3275L53.107 42.8026L51.4454 42.2473L56.6428 26.6963L58.134 27.1947ZM87.4891 37.0057L89.1512 54.8491L87.3191 54.2368L86.9534 49.6624L78.8158 46.9426L75.7731 50.378L73.8984 49.7514L85.9127 36.4788L87.4891 37.0057ZM86.8127 47.9576L86.0245 38.837L79.9533 45.665L86.8127 47.9576ZM113.819 45.8056L103.19 50.6839L109.048 61.499L106.705 60.7158L101.172 50.6254L98.6947 58.0388L96.9053 57.4407L102.103 41.8898L103.892 42.4878L101.5 49.6455L111.518 45.0367L113.819 45.8056ZM125.323 49.6503L120.125 65.2012L118.336 64.6032L123.533 49.0522L125.323 49.6503ZM135.974 53.2101L141.161 68.8688L145.347 56.3428L147.051 56.9124L141.854 72.4633L140.491 72.0077L135.247 56.3774L131.075 68.8607L129.413 68.3054L134.611 52.7545L135.974 53.2101ZM160.152 71.1425L160.622 69.7366L166.118 71.5735L163.711 78.7738C162.305 79.0141 159.989 78.714 157.944 78.0305C153.3 76.4784 151.528 72.5704 153.194 67.5856C154.831 62.686 158.612 60.5866 163.128 62.096C165.301 62.8222 166.948 64.1304 167.841 65.85L166.647 67.0139C165.597 65.1947 164.447 64.2421 162.615 63.6298C159.122 62.4621 156.407 64.0652 155.026 68.1979C153.616 72.4158 154.821 75.3289 158.485 76.5535C159.806 76.995 161.113 77.1949 162.448 77.1675L164.029 72.4383L160.152 71.1425ZM41.9165 59.9172C43.5397 55.0602 47.3343 52.9182 51.7653 54.3991C53.8956 55.1111 55.4998 56.4051 56.3933 58.1247L55.2417 59.3028C54.192 57.4837 52.9852 56.5593 51.2384 55.9755C47.83 54.8364 45.1155 56.4394 43.7485 60.5295C42.3815 64.6197 43.5582 67.618 46.9666 68.7571C48.7134 69.3409 50.2477 69.2853 52.166 68.5055L52.3921 70.0967C50.6299 70.9761 48.5842 71.0029 46.454 70.2909C42.023 68.81 40.2789 64.8169 41.9165 59.9172ZM65.2081 66.7544L74.4961 69.8586L76.8029 62.9566L78.5923 63.5546L73.3949 79.1056L71.6055 78.5075L73.9835 71.3924L64.6955 68.2882L62.3175 75.4033L60.5281 74.8053L65.7255 59.2543L67.5149 59.8524L65.2081 66.7544ZM94.7397 68.9514L96.4018 86.7948L94.5697 86.1826L94.204 81.6081L86.0664 78.8883L83.0237 82.3237L81.1491 81.6971L93.1633 68.4245L94.7397 68.9514ZM94.0633 79.9033L93.2751 70.7827L87.2039 77.6108L94.0633 79.9033ZM110.717 74.2911L115.903 89.9498L120.09 77.4238L121.794 77.9934L116.597 93.5443L115.233 93.0887L109.99 77.4584L105.818 89.9418L104.156 89.3864L109.353 73.8355L110.717 74.2911ZM134.894 92.2236L135.364 90.8176L140.86 92.6545L138.454 99.8548C137.047 100.095 134.732 99.795 132.687 99.1115C128.043 97.5594 126.271 93.6515 127.937 88.6666C129.574 83.767 133.354 81.6676 137.871 83.177C140.044 83.9032 141.69 85.2114 142.584 86.931L141.39 88.0949C140.34 86.2758 139.19 85.3231 137.358 84.7108C133.864 83.5432 131.15 85.1462 129.769 89.2789C128.359 93.4969 129.564 96.41 133.228 97.6346C134.549 98.076 135.856 98.2759 137.191 98.2485L138.772 93.5194L134.894 92.2236ZM157.187 105.452L156.688 106.944L146.889 103.669L152.086 88.1176L161.886 91.3927L161.387 92.8839L153.378 90.2069L151.569 95.6177L159.153 98.1524L158.64 99.6862L151.056 97.1515L149.177 102.775L157.187 105.452ZM35.9247 86.4898L45.2126 89.594L47.5194 82.692L49.3088 83.29L44.1115 98.841L42.322 98.2429L44.7 91.1278L35.4121 88.0236L33.0341 95.1387L31.2446 94.5407L36.442 78.9897L38.2315 79.5878L35.9247 86.4898ZM65.4563 88.6868L67.1183 106.53L65.2863 105.918L64.9206 101.343L56.783 98.6237L53.7403 102.059L51.8656 101.433L63.8799 88.1599L65.4563 88.6868ZM64.7799 99.6387L63.9916 90.5181L57.9204 97.3462L64.7799 99.6387ZM76.6619 109.72L74.8725 109.122L80.0699 93.5709L86.2477 95.6356C89.4857 96.7178 90.805 99.0059 89.9079 101.69C88.9966 104.417 86.524 105.438 83.3286 104.37L78.9402 102.903L76.6619 109.72ZM81.3609 95.6601L79.4386 101.412L83.6991 102.836C85.9998 103.605 87.4919 102.967 88.1185 101.092C88.7307 99.26 87.9221 97.853 85.6215 97.0841L81.3609 95.6601ZM97.2403 116.598L95.4509 115.999L100.648 100.449L106.826 102.513C110.064 103.595 111.383 105.884 110.486 108.568C109.575 111.294 107.102 112.315 103.907 111.247L99.5186 109.781L97.2403 116.598ZM101.939 102.538L100.017 108.289L104.278 109.713C106.578 110.482 108.07 109.844 108.697 107.97C109.309 106.138 108.501 104.731 106.2 103.962L101.939 102.538ZM126.327 124.661L125.828 126.152L116.029 122.877L121.227 107.326L131.026 110.601L130.527 112.092L122.518 109.415L120.709 114.826L128.293 117.361L127.78 118.895L120.197 116.36L118.317 121.984L126.327 124.661ZM141.677 114.161L146.864 129.82L151.05 117.294L152.755 117.863L147.557 133.414L146.194 132.959L140.95 117.328L136.778 129.812L135.116 129.256L140.314 113.705L141.677 114.161Z" fill="black"/>
</svg>
